<svg width="78" height="61" viewBox="0 0 78 61" fill="none" xmlns="http://www.w3.org/2000/svg">
<g id="Button P">
<path id="Vector" d="M34.7782 0.5H76.6028L43.5006 60.5H1.676L34.7782 0.5Z" stroke="#F1F0EB"/>
<path id="Vector_2" d="M38.349 44.8366H36.2935V15.5774H40.9479C41.406 15.5774 41.8993 15.6726 42.4338 15.863C43.3089 16.1486 44.0518 16.6339 44.6597 17.3188C45.2676 18.0036 45.6112 18.9004 45.6875 20.0061C45.7433 20.7493 45.7815 21.4741 45.802 22.1774C45.802 27.6441 45.7639 30.9978 45.6875 32.2355C45.5554 33.7036 44.9739 34.8061 43.9461 35.5493C43.0329 36.2557 42.0609 36.6151 41.0331 36.6366H38.349V44.8366ZM41.0624 34.4929C41.2533 34.4744 41.4824 34.4161 41.7466 34.3209C42.7744 33.9984 43.3735 33.2552 43.5468 32.0912C43.6407 30.4911 43.6995 28.501 43.7171 26.1208C43.6965 23.7222 43.6407 21.7198 43.5468 20.1197C43.3764 18.9588 42.7744 18.2155 41.7466 17.89C41.4618 17.7948 41.2122 17.7457 41.0037 17.7457H38.349V34.4898H41.0624V34.4929Z" fill="#F1F0EB"/>
</g>
</svg>
