<svg width="232" height="246" viewBox="0 0 232 246" fill="none" xmlns="http://www.w3.org/2000/svg">
<g id="Frame prodigma">
<path id="Vector" d="M34.5346 245.652L231.142 214.702L197.38 0.232302L0.772461 31.1826L34.5346 245.652ZM198.053 211.507L65.0345 232.447L33.8532 34.3716L166.872 13.4316L198.053 211.507ZM188.835 27.1185C185.355 31.7806 178.778 32.8159 174.027 29.4496C177.506 24.7875 184.083 23.7521 188.835 27.1185ZM192.343 49.4049C188.863 54.067 182.286 55.1024 177.535 51.736C181.015 47.0739 187.592 46.0385 192.343 49.4049ZM195.852 71.6988C192.373 76.3609 185.796 77.3963 181.044 74.0299C184.525 69.3752 191.102 68.3398 195.852 71.6988ZM199.362 93.9926C195.882 98.6547 189.305 99.6901 184.555 96.3312C188.035 91.6691 194.612 90.6337 199.362 93.9926ZM202.873 116.294C199.392 120.949 192.816 121.991 188.065 118.625C191.544 113.963 198.122 112.928 202.873 116.294ZM206.381 138.58C202.9 143.235 196.324 144.278 191.573 140.911C195.053 136.249 201.63 135.214 206.381 138.58ZM209.891 160.874C206.411 165.536 199.834 166.572 195.083 163.205C198.562 158.543 205.139 157.508 209.891 160.874ZM213.4 183.168C209.921 187.83 203.343 188.866 198.592 185.499C202.072 180.837 208.649 179.802 213.4 183.168ZM17.165 54.143C20.6372 49.482 27.2218 48.4455 31.9581 51.8142C28.4859 56.4751 21.9012 57.5117 17.165 54.143ZM20.6734 76.4294C24.1456 71.7685 30.7302 70.7319 35.4664 74.1007C31.9942 78.7616 25.4096 79.7981 20.6734 76.4294ZM24.1829 98.7233C27.6563 94.0698 34.2409 93.0332 38.976 96.3945C35.5038 101.055 28.9191 102.092 24.1829 98.7233ZM27.6936 121.025C31.1658 116.364 37.7504 115.327 42.4855 118.688C39.0133 123.349 32.4287 124.386 27.6936 121.025ZM31.2031 143.318C34.6753 138.658 41.26 137.621 45.9962 140.99C42.5229 145.643 35.9394 146.687 31.2031 143.318ZM34.7115 165.605C38.1837 160.944 44.7683 159.907 49.5046 163.276C46.0312 167.93 39.4478 168.974 34.7115 165.605ZM38.2211 187.899C41.6932 183.238 48.2779 182.201 53.0141 185.57C49.5419 190.231 42.9573 191.268 38.2211 187.899ZM41.7306 210.193C45.2028 205.532 51.7874 204.495 56.5237 207.864C53.0515 212.525 46.4668 213.561 41.7306 210.193ZM45.239 232.479C48.7112 227.818 55.2958 226.782 60.032 230.15C56.5598 234.811 49.9752 235.848 45.239 232.479ZM202.101 207.786C205.58 203.124 212.157 202.088 216.909 205.455C213.429 210.117 206.852 211.152 202.101 207.786Z" fill="#DDD7CE"/>
<g id="Group 17">
<g id="Group">
<g id="Group_2">
<path id="Vector_2" d="M191.884 26.7761C191.884 26.7761 191.98 26.7076 192.077 26.6924L192.71 26.5927C193.031 26.5423 193.308 26.5596 193.551 26.6511C193.795 26.7425 193.991 26.872 194.154 27.0371C194.318 27.2022 194.479 27.4057 194.641 27.6551C194.662 27.69 194.682 27.7249 194.711 27.7587C194.731 27.7936 194.761 27.8347 194.79 27.8759C194.913 28.0778 195.023 28.2437 195.118 28.3586C195.212 28.4735 195.327 28.57 195.466 28.632C195.606 28.694 195.769 28.7141 195.956 28.6847C196.216 28.6437 196.407 28.545 196.527 28.3887C196.648 28.2323 196.693 28.0344 196.656 27.8035C196.62 27.5725 196.54 27.402 196.414 27.2843C196.288 27.1592 196.106 27.0733 195.869 27.0191C195.798 27.0073 195.741 26.9857 195.707 26.9606C195.672 26.9355 195.653 26.908 195.647 26.8708C195.644 26.8485 195.645 26.81 195.658 26.7469L195.74 26.2989C195.76 26.1813 195.81 26.1123 195.892 26.0994C195.937 26.0924 195.983 26.0928 196.031 26.1081C196.456 26.1938 196.788 26.3629 197.048 26.6045C197.301 26.8547 197.465 27.2182 197.542 27.7098C197.599 28.0673 197.572 28.3844 197.463 28.6612C197.354 28.9379 197.183 29.1632 196.951 29.3371C196.718 29.5036 196.453 29.614 196.148 29.6621C195.812 29.7149 195.527 29.6987 195.285 29.6147C195.05 29.5295 194.838 29.3949 194.655 29.2024C194.472 29.0098 194.269 28.7365 194.048 28.3973C193.856 28.0993 193.684 27.8821 193.542 27.7518C193.399 27.6216 193.215 27.5666 193.021 27.5971L192.865 27.6218L193.215 29.8489C193.229 29.9383 193.216 30.0014 193.185 30.0445C193.154 30.0876 193.089 30.1131 192.992 30.1283L192.627 30.1858C192.53 30.201 192.461 30.1967 192.418 30.1653C192.375 30.1339 192.343 30.0778 192.329 29.9885L191.854 26.9717C191.84 26.8824 191.853 26.8192 191.884 26.7761Z" fill="#23221F"/>
<path id="Vector_3" d="M192.956 31.5C193.233 31.1281 193.647 30.895 194.206 30.8071L196.127 30.5046C196.678 30.4178 197.144 30.5125 197.522 30.7812C197.9 31.0499 198.128 31.4796 198.218 32.0532C198.309 32.6267 198.215 33.0995 197.945 33.4702C197.668 33.8421 197.262 34.0739 196.703 34.1619L194.781 34.4644C194.223 34.5523 193.757 34.4577 193.379 34.189C193.001 33.9203 192.774 33.498 192.684 32.9244C192.594 32.3509 192.686 31.8707 192.956 31.5ZM193.697 32.0856C193.558 32.2678 193.511 32.5042 193.555 32.7872C193.6 33.0703 193.717 33.2808 193.904 33.404C194.092 33.5272 194.336 33.5728 194.634 33.5259L196.555 33.2233C196.853 33.1764 197.072 33.0656 197.204 32.8846C197.337 32.711 197.384 32.4746 197.339 32.1915C197.295 31.9085 197.177 31.6905 196.997 31.5661C196.816 31.4343 196.573 31.3962 196.275 31.4431L194.353 31.7456C194.055 31.7925 193.836 31.9034 193.697 32.0856Z" fill="#23221F"/>
<path id="Vector_4" d="M193.277 35.6172C193.277 35.6172 193.373 35.5487 193.47 35.5334L194.103 35.4338C194.423 35.3833 194.701 35.4007 194.944 35.4922C195.187 35.5836 195.383 35.7131 195.547 35.8782C195.71 36.0433 195.872 36.2468 196.033 36.4962C196.054 36.5311 196.075 36.566 196.103 36.5997C196.124 36.6346 196.153 36.6758 196.183 36.717C196.306 36.9189 196.416 37.0848 196.51 37.1997C196.605 37.3146 196.719 37.4111 196.859 37.4731C196.998 37.5351 197.162 37.5551 197.348 37.5258C197.609 37.4848 197.799 37.3861 197.92 37.2297C198.04 37.0734 198.085 36.8754 198.049 36.6445C198.013 36.4136 197.932 36.243 197.807 36.1254C197.68 36.0003 197.499 35.9143 197.261 35.8601C197.191 35.8483 197.134 35.8268 197.1 35.8017C197.065 35.7766 197.045 35.7491 197.04 35.7119C197.036 35.6895 197.038 35.6511 197.051 35.588L197.133 35.14C197.152 35.0224 197.203 34.9534 197.285 34.9405C197.329 34.9335 197.375 34.9339 197.423 34.9492C197.849 35.0348 198.181 35.204 198.44 35.4456C198.694 35.6958 198.858 36.0592 198.935 36.5508C198.991 36.9084 198.965 37.2255 198.856 37.5022C198.747 37.7789 198.576 38.0042 198.344 38.1782C198.111 38.3447 197.845 38.4551 197.54 38.5032C197.205 38.5559 196.92 38.5397 196.678 38.4557C196.443 38.3706 196.231 38.236 196.048 38.0435C195.865 37.8509 195.662 37.5776 195.44 37.2384C195.248 36.9404 195.077 36.7231 194.934 36.5929C194.791 36.4627 194.607 36.4077 194.414 36.4382L194.257 36.4628L194.608 38.69C194.622 38.7794 194.609 38.8425 194.578 38.8856C194.546 38.9287 194.481 38.9541 194.385 38.9694L194.02 39.0268C193.923 39.0421 193.853 39.0377 193.81 39.0064C193.767 38.975 193.735 38.9189 193.721 38.8295L193.247 35.8128C193.232 35.7234 193.245 35.6603 193.277 35.6172Z" fill="#23221F"/>
<path id="Vector_5" d="M194.311 42.195C194.311 42.195 194.407 42.1264 194.504 42.1112L195.487 41.9564L195.133 39.7069C195.119 39.6175 195.132 39.5544 195.163 39.5113C195.194 39.4682 195.259 39.4427 195.356 39.4275L195.624 39.3853C195.706 39.3724 195.767 39.3704 195.814 39.3783C195.861 39.3862 195.919 39.4152 195.985 39.4505L199.385 41.1671C199.461 41.2087 199.521 41.2526 199.551 41.3013C199.581 41.3424 199.606 41.4071 199.62 41.4965L199.691 41.9434C199.705 42.0328 199.7 42.1022 199.662 42.1465C199.63 42.1896 199.567 42.2225 199.47 42.2377L196.461 42.7114L196.531 43.1584C196.545 43.2478 196.539 43.3097 196.501 43.354C196.469 43.3971 196.405 43.4225 196.308 43.4378L195.987 43.4882C195.891 43.5034 195.821 43.4991 195.778 43.4677C195.735 43.4363 195.703 43.3803 195.689 43.2909L195.619 42.8439L194.636 42.9987C194.539 43.014 194.468 43.0022 194.425 42.9708C194.382 42.9394 194.349 42.8759 194.335 42.7865L194.273 42.3917C194.26 42.3098 194.273 42.2467 194.304 42.2036L194.311 42.195ZM196.314 41.8262L198.31 41.512L196.087 40.3886L196.314 41.8262Z" fill="#23221F"/>
</g>
<g id="Group_3">
<path id="Vector_6" d="M217.272 188.047C217.272 188.047 217.368 187.978 217.465 187.963L218.098 187.863C218.418 187.813 218.696 187.83 218.939 187.922C219.175 188.014 219.379 188.143 219.542 188.308C219.705 188.473 219.867 188.676 220.028 188.926C220.049 188.961 220.07 188.996 220.098 189.029C220.119 189.064 220.148 189.105 220.178 189.147C220.301 189.349 220.411 189.514 220.506 189.629C220.6 189.744 220.714 189.841 220.854 189.903C220.994 189.965 221.157 189.985 221.343 189.955C221.604 189.914 221.794 189.816 221.915 189.659C222.035 189.503 222.08 189.305 222.044 189.074C222.008 188.843 221.928 188.673 221.802 188.555C221.676 188.43 221.494 188.344 221.257 188.29C221.186 188.278 221.129 188.256 221.095 188.231C221.06 188.206 221.041 188.179 221.035 188.142C221.031 188.119 221.033 188.081 221.046 188.018L221.128 187.57C221.148 187.452 221.198 187.383 221.28 187.37C221.324 187.363 221.37 187.364 221.418 187.379C221.844 187.465 222.176 187.634 222.435 187.875C222.689 188.125 222.853 188.489 222.93 188.981C222.986 189.338 222.96 189.655 222.851 189.932C222.742 190.209 222.571 190.434 222.339 190.608C222.107 190.782 221.841 190.885 221.535 190.933C221.2 190.986 220.915 190.969 220.673 190.885C220.438 190.8 220.226 190.666 220.043 190.473C219.86 190.281 219.657 190.007 219.435 189.668C219.243 189.37 219.072 189.153 218.929 189.023C218.778 188.886 218.602 188.837 218.409 188.868L218.252 188.893L218.603 191.12C218.617 191.209 218.604 191.272 218.573 191.315C218.541 191.358 218.477 191.384 218.38 191.399L218.015 191.457C217.918 191.472 217.849 191.467 217.805 191.436C217.762 191.405 217.731 191.349 217.717 191.259L217.242 188.243C217.228 188.153 217.241 188.09 217.272 188.047Z" fill="#23221F"/>
<path id="Vector_7" d="M218.345 192.779C218.622 192.407 219.036 192.174 219.594 192.086L221.516 191.783C222.067 191.696 222.532 191.791 222.911 192.06C223.289 192.328 223.517 192.758 223.607 193.332C223.697 193.905 223.604 194.378 223.334 194.749C223.057 195.121 222.65 195.353 222.092 195.44L220.17 195.743C219.611 195.831 219.146 195.736 218.768 195.468C218.39 195.199 218.163 194.777 218.073 194.203C217.982 193.629 218.075 193.149 218.345 192.779ZM219.086 193.364C218.946 193.546 218.9 193.783 218.944 194.066C218.989 194.349 219.106 194.559 219.293 194.683C219.48 194.806 219.724 194.851 220.022 194.804L221.944 194.502C222.242 194.455 222.461 194.344 222.593 194.163C222.726 193.99 222.773 193.753 222.728 193.47C222.683 193.187 222.565 192.969 222.385 192.845C222.204 192.713 221.962 192.675 221.664 192.722L219.742 193.024C219.444 193.071 219.225 193.182 219.086 193.364Z" fill="#23221F"/>
<path id="Vector_8" d="M218.664 196.888C218.664 196.888 218.761 196.819 218.857 196.804L219.491 196.704C219.811 196.654 220.088 196.671 220.332 196.763C220.568 196.855 220.771 196.984 220.934 197.149C221.098 197.314 221.26 197.517 221.421 197.767C221.442 197.802 221.463 197.837 221.491 197.87C221.512 197.905 221.541 197.946 221.57 197.987C221.694 198.189 221.804 198.355 221.898 198.47C221.993 198.585 222.107 198.682 222.247 198.744C222.386 198.806 222.55 198.826 222.736 198.796C222.996 198.755 223.187 198.657 223.307 198.5C223.428 198.344 223.473 198.146 223.437 197.915C223.4 197.684 223.32 197.514 223.195 197.396C223.068 197.271 222.887 197.185 222.649 197.131C222.579 197.119 222.522 197.097 222.487 197.072C222.453 197.047 222.433 197.02 222.427 196.982C222.424 196.96 222.425 196.922 222.438 196.858L222.521 196.41C222.54 196.293 222.59 196.224 222.672 196.211C222.717 196.204 222.763 196.204 222.811 196.22C223.237 196.305 223.569 196.474 223.828 196.716C224.081 196.966 224.245 197.33 224.323 197.821C224.379 198.179 224.353 198.496 224.243 198.773C224.134 199.049 223.964 199.275 223.732 199.449C223.499 199.623 223.233 199.726 222.928 199.774C222.593 199.826 222.308 199.81 222.065 199.726C221.831 199.641 221.619 199.507 221.436 199.314C221.253 199.121 221.049 198.848 220.828 198.509C220.636 198.211 220.464 197.994 220.322 197.863C220.171 197.727 219.995 197.678 219.801 197.709L219.645 197.733L219.995 199.96C220.01 200.05 219.997 200.113 219.965 200.156C219.934 200.199 219.869 200.225 219.772 200.24L219.407 200.297C219.311 200.313 219.241 200.308 219.198 200.277C219.155 200.245 219.123 200.189 219.109 200.1L218.634 197.083C218.62 196.994 218.633 196.931 218.664 196.888Z" fill="#23221F"/>
<path id="Vector_9" d="M219.699 203.465C219.699 203.465 219.795 203.397 219.892 203.382L220.875 203.227L220.521 200.977C220.507 200.888 220.52 200.825 220.552 200.782C220.583 200.739 220.648 200.713 220.745 200.698L221.013 200.656C221.095 200.643 221.155 200.641 221.202 200.649C221.249 200.657 221.307 200.686 221.374 200.721L224.774 202.438C224.849 202.479 224.91 202.523 224.94 202.572C224.969 202.613 224.995 202.678 225.009 202.767L225.079 203.214C225.093 203.303 225.089 203.373 225.05 203.417C225.019 203.46 224.955 203.493 224.859 203.508L221.849 203.982L221.92 204.429C221.934 204.518 221.928 204.58 221.889 204.624C221.858 204.668 221.793 204.693 221.696 204.708L221.376 204.759C221.279 204.774 221.21 204.77 221.167 204.738C221.124 204.707 221.092 204.651 221.078 204.561L221.008 204.114L220.024 204.269C219.927 204.284 219.857 204.273 219.814 204.241C219.771 204.21 219.738 204.146 219.724 204.057L219.662 203.662C219.648 203.573 219.66 203.51 219.693 203.474L219.699 203.465ZM221.702 203.097L223.699 202.782L221.476 201.659L221.702 203.097Z" fill="#23221F"/>
</g>
<g id="Group_4">
<path id="Vector_10" d="M203.231 98.8575C203.231 98.8575 203.328 98.7964 203.425 98.7812L208.23 98.0249C208.326 98.0096 208.396 98.014 208.438 98.0379C208.48 98.0618 208.513 98.1253 208.527 98.2147L208.812 100.025C208.891 100.531 208.798 100.958 208.54 101.304C208.274 101.651 207.881 101.873 207.337 101.959C206.794 102.045 206.353 101.961 206.001 101.711C205.649 101.462 205.429 101.084 205.349 100.577L205.173 99.4602L203.579 99.7111C203.482 99.7263 203.413 99.722 203.37 99.6906C203.327 99.6592 203.295 99.6032 203.282 99.5212L203.208 99.052C203.194 98.9626 203.207 98.8995 203.239 98.8564L203.231 98.8575ZM206.205 100.389C206.242 100.628 206.345 100.795 206.515 100.905C206.685 101.016 206.904 101.05 207.172 101.008C207.441 100.966 207.639 100.866 207.774 100.707C207.909 100.548 207.954 100.351 207.918 100.12L207.749 99.047L206.036 99.3167L206.205 100.389Z" fill="#23221F"/>
<path id="Vector_11" d="M203.948 103.401C203.948 103.401 204.044 103.332 204.141 103.317L208.945 102.561C209.042 102.545 209.112 102.55 209.155 102.581C209.197 102.605 209.23 102.668 209.244 102.758L209.536 104.613C209.613 105.104 209.525 105.515 209.281 105.859C209.03 106.203 208.658 106.407 208.144 106.488C207.756 106.549 207.438 106.515 207.175 106.396C206.912 106.277 206.712 106.072 206.576 105.788C206.499 105.93 206.381 106.056 206.214 106.158L204.749 107.129C204.715 107.158 204.672 107.172 204.627 107.179C204.545 107.192 204.491 107.139 204.473 107.028L204.399 106.558C204.377 106.417 204.376 106.31 204.39 106.255C204.404 106.199 204.463 106.136 204.554 106.084L205.741 105.332C205.886 105.24 205.995 105.155 206.061 105.091C206.128 105.027 206.17 104.959 206.188 104.88C206.207 104.801 206.206 104.702 206.185 104.567L206.092 103.979L204.297 104.262C204.201 104.277 204.131 104.273 204.088 104.241C204.045 104.21 204.013 104.154 204 104.072L203.926 103.603C203.912 103.513 203.925 103.45 203.957 103.407L203.948 103.401ZM207.093 104.951C207.127 105.167 207.221 105.328 207.382 105.432C207.536 105.538 207.74 105.574 207.994 105.535C208.247 105.495 208.415 105.4 208.529 105.252C208.644 105.104 208.684 104.922 208.65 104.706L208.474 103.589L206.917 103.834L207.093 104.951Z" fill="#23221F"/>
<path id="Vector_12" d="M205.086 108.351C205.381 107.946 205.831 107.699 206.434 107.604L208.065 107.347C208.676 107.251 209.18 107.347 209.577 107.644C209.983 107.939 210.23 108.396 210.33 109.029C210.43 109.662 210.336 110.181 210.039 110.578C209.744 110.984 209.295 111.23 208.691 111.325L207.06 111.582C206.449 111.678 205.946 111.582 205.548 111.285C205.143 110.991 204.895 110.533 204.796 109.9C204.696 109.267 204.79 108.748 205.086 108.351ZM205.827 108.936C205.676 109.143 205.621 109.419 205.674 109.762C205.728 110.104 205.859 110.351 206.073 110.501C206.288 110.65 206.562 110.698 206.912 110.643L208.559 110.384C208.909 110.329 209.163 110.197 209.313 109.99C209.464 109.784 209.52 109.508 209.466 109.165C209.412 108.822 209.281 108.576 209.067 108.426C208.853 108.277 208.578 108.228 208.228 108.284L206.582 108.543C206.232 108.598 205.978 108.729 205.827 108.936Z" fill="#23221F"/>
<path id="Vector_13" d="M205.444 112.913C205.444 112.913 205.542 112.852 205.638 112.836L210.443 112.08C210.54 112.065 210.609 112.069 210.651 112.093C210.693 112.117 210.726 112.18 210.74 112.27L210.986 113.834C211.087 114.475 210.993 114.993 210.698 115.398C210.403 115.804 209.946 116.051 209.328 116.149L207.965 116.363C207.346 116.46 206.835 116.365 206.43 116.07C206.025 115.775 205.776 115.311 205.675 114.67L205.429 113.106C205.415 113.017 205.428 112.953 205.459 112.91L205.444 112.913ZM206.542 114.549C206.595 114.892 206.726 115.138 206.94 115.288C207.155 115.437 207.437 115.484 207.802 115.427L209.18 115.21C209.537 115.154 209.799 115.021 209.957 114.813C210.115 114.605 210.163 114.33 210.109 113.987L209.97 113.101L206.409 113.661L206.549 114.548L206.542 114.549Z" fill="#23221F"/>
<path id="Vector_14" d="M206.193 117.719C206.217 117.677 206.281 117.644 206.37 117.63L211.227 116.865C211.316 116.851 211.378 116.857 211.414 116.889C211.449 116.922 211.472 116.972 211.484 117.046L211.565 117.56C211.576 117.627 211.569 117.682 211.545 117.724C211.52 117.758 211.464 117.79 211.374 117.804L206.518 118.568C206.429 118.583 206.365 118.57 206.322 118.538C206.287 118.506 206.255 118.45 206.243 118.375L206.166 117.883C206.155 117.816 206.161 117.754 206.192 117.711L206.193 117.719Z" fill="#23221F"/>
<path id="Vector_15" d="M206.928 120.053C207.223 119.647 207.673 119.401 208.276 119.306L209.915 119.048C210.518 118.953 211.022 119.049 211.42 119.345C211.825 119.64 212.073 120.098 212.172 120.731C212.328 121.721 212.01 122.413 211.208 122.799C211.158 122.822 211.122 122.835 211.085 122.841C211.032 122.849 210.993 122.84 210.96 122.822C210.925 122.797 210.896 122.756 210.856 122.701L210.647 122.291C210.615 122.235 210.602 122.199 210.598 122.177C210.587 122.102 210.644 122.032 210.764 121.968C210.984 121.864 211.137 121.718 211.223 121.537C211.309 121.355 211.335 121.137 211.293 120.869C211.183 120.169 210.77 119.875 210.063 119.987L208.409 120.247C207.694 120.359 207.392 120.766 207.502 121.466C207.557 121.816 207.674 122.073 207.844 122.236C208.015 122.4 208.245 122.456 208.521 122.412L208.975 122.341L208.817 121.335C208.804 121.253 208.817 121.19 208.849 121.147C208.88 121.104 208.945 121.079 209.041 121.063L209.392 121.008C209.488 120.993 209.558 120.997 209.601 121.029C209.644 121.06 209.676 121.116 209.689 121.198L209.95 122.859C209.964 122.949 209.951 123.012 209.92 123.055C209.888 123.098 209.824 123.123 209.727 123.139L208.692 123.302C208.349 123.355 208.032 123.329 207.739 123.215C207.446 123.101 207.21 122.909 207.007 122.636C206.811 122.361 206.672 122.016 206.608 121.607C206.508 120.974 206.602 120.455 206.898 120.057L206.928 120.053Z" fill="#23221F"/>
<path id="Vector_16" d="M207.278 124.555C207.278 124.555 207.374 124.487 207.471 124.471L212.275 123.715C212.372 123.7 212.441 123.704 212.485 123.735C212.528 123.767 212.559 123.823 212.574 123.912L212.636 124.307C212.651 124.404 212.648 124.481 212.634 124.536C212.618 124.585 212.573 124.637 212.497 124.688L209.839 126.518L212.924 127.445C213.011 127.469 213.077 127.497 213.106 127.538C213.134 127.572 213.16 127.637 213.175 127.733L213.243 128.165C213.258 128.262 213.245 128.325 213.214 128.369C213.183 128.412 213.118 128.437 213.021 128.452L208.217 129.209C208.12 129.224 208.05 129.22 208.007 129.188C207.964 129.157 207.932 129.101 207.917 129.004L207.853 128.594C207.839 128.505 207.85 128.434 207.883 128.399C207.914 128.356 207.979 128.33 208.076 128.315L210.355 127.956C210.832 127.881 211.338 127.847 211.867 127.863L211.86 127.818C211.337 127.74 210.854 127.633 210.414 127.504L209.042 127.079C208.969 127.052 208.912 127.031 208.876 126.998C208.841 126.965 208.818 126.916 208.806 126.841L208.76 126.551C208.748 126.476 208.755 126.422 208.771 126.381C208.788 126.34 208.835 126.302 208.904 126.253L210.076 125.405C210.274 125.259 210.469 125.137 210.658 125.031C210.847 124.924 211.082 124.811 211.367 124.682L211.358 124.63C210.83 124.813 210.339 124.943 209.877 125.016L207.598 125.375C207.501 125.39 207.432 125.386 207.389 125.354C207.345 125.323 207.314 125.267 207.3 125.178L207.236 124.775C207.222 124.686 207.235 124.623 207.267 124.58L207.278 124.555Z" fill="#23221F"/>
<path id="Vector_17" d="M208.194 129.892C208.194 129.892 208.255 129.89 208.318 129.903L213.449 130.836C213.536 130.852 213.601 130.88 213.637 130.913C213.673 130.945 213.698 131.01 213.711 131.092L213.786 131.569C213.799 131.651 213.795 131.72 213.772 131.77C213.749 131.819 213.703 131.864 213.626 131.907L209.02 134.365C208.978 134.387 208.942 134.4 208.905 134.406C208.823 134.419 208.769 134.366 208.749 134.24L208.678 133.793C208.657 133.659 208.657 133.559 208.677 133.495C208.698 133.431 208.751 133.384 208.837 133.348L209.744 132.9L209.451 131.038L208.45 130.89C208.357 130.881 208.291 130.846 208.253 130.799C208.215 130.751 208.185 130.657 208.165 130.53L208.098 130.106C208.078 129.979 208.113 129.912 208.195 129.899L208.194 129.892ZM210.494 132.522L211.984 131.807C212.326 131.654 212.6 131.549 212.827 131.491L212.82 131.446C212.531 131.453 212.24 131.446 211.922 131.412L210.282 131.181L210.495 132.53L210.494 132.522Z" fill="#23221F"/>
</g>
</g>
<g id="Group_5">
<g id="Group_6">
<path id="Vector_18" d="M8.84466 55.5903C8.84466 55.5903 8.94073 55.5218 9.03756 55.5066L9.67071 55.4069C9.991 55.3565 10.2685 55.3739 10.5119 55.4653C10.7553 55.5568 10.9513 55.6862 11.1146 55.8513C11.278 56.0164 11.4398 56.2199 11.6012 56.4693C11.622 56.5042 11.6428 56.5391 11.671 56.5729C11.6917 56.6078 11.7211 56.6489 11.7505 56.6901C11.8739 56.892 11.984 57.0579 12.0784 57.1728C12.1728 57.2877 12.2872 57.3842 12.4267 57.4462C12.5663 57.5082 12.7297 57.5283 12.916 57.4989C13.1767 57.4579 13.3672 57.3592 13.4876 57.2029C13.6081 57.0465 13.6532 56.8486 13.6169 56.6177C13.5805 56.3868 13.5002 56.2162 13.3748 56.0985C13.2483 55.9734 13.0668 55.8875 12.8293 55.8333C12.7587 55.8215 12.7019 55.7999 12.6674 55.7748C12.6329 55.7497 12.6134 55.7223 12.6075 55.685C12.604 55.6627 12.6056 55.6242 12.6185 55.5611L12.7007 55.1131C12.7203 54.9955 12.7705 54.9265 12.8525 54.9136C12.8971 54.9066 12.943 54.907 12.9912 54.9223C13.4169 55.008 13.7489 55.1771 14.0082 55.4187C14.2614 55.6689 14.4255 56.0324 14.5029 56.524C14.5591 56.8815 14.5327 57.1987 14.4236 57.4754C14.3145 57.7521 14.1439 57.9774 13.9117 58.1513C13.6784 58.3178 13.4134 58.4282 13.108 58.4763C12.7728 58.5291 12.4878 58.5129 12.2456 58.4289C12.0108 58.3437 11.7988 58.2091 11.6158 58.0166C11.4328 57.824 11.2295 57.5507 11.0082 57.2115C10.8162 56.9135 10.6446 56.6963 10.502 56.5661C10.3594 56.4358 10.1751 56.3809 9.98148 56.4113L9.82506 56.436L10.1757 58.6631C10.1897 58.7525 10.1768 58.8156 10.1454 58.8587C10.114 58.9018 10.0493 58.9273 9.95248 58.9425L9.5875 59C9.49067 59.0152 9.4213 59.0109 9.37819 58.9795C9.33508 58.9481 9.30334 58.8921 9.28927 58.8027L8.81438 55.7859C8.8003 55.6966 8.81328 55.6335 8.84466 55.5903Z" fill="#23221F"/>
<path id="Vector_19" d="M9.91633 60.3154C10.1937 59.9435 10.6073 59.7105 11.166 59.6225L13.0877 59.32C13.6389 59.2332 14.1042 59.3279 14.4824 59.5966C14.8605 59.8653 15.0885 60.2951 15.1788 60.8686C15.2691 61.4422 15.1755 61.9149 14.9057 62.2856C14.6284 62.6575 14.2221 62.8894 13.6635 62.9773L11.7417 63.2798C11.1831 63.3678 10.7178 63.2731 10.3396 63.0044C9.96147 62.7357 9.7347 62.3134 9.64441 61.7398C9.55412 61.1663 9.64646 60.6861 9.91633 60.3154ZM10.6574 60.901C10.5181 61.0832 10.4713 61.3196 10.5159 61.6026C10.5605 61.8857 10.6776 62.0963 10.8649 62.2194C11.0522 62.3426 11.296 62.3882 11.594 62.3413L13.5157 62.0388C13.8137 61.9919 14.0329 61.881 14.1647 61.7C14.2976 61.5264 14.3444 61.29 14.2998 61.007C14.2553 60.7239 14.137 60.5059 13.9571 60.3816C13.7761 60.2498 13.5334 60.2116 13.2355 60.2585L11.3137 60.5611C11.0158 60.608 10.7966 60.7188 10.6574 60.901Z" fill="#23221F"/>
<path id="Vector_20" d="M10.2358 64.4322C10.2358 64.4322 10.3318 64.3636 10.4287 64.3484L11.0618 64.2487C11.3821 64.1983 11.6596 64.2156 11.903 64.3071C12.1464 64.3985 12.3424 64.528 12.5058 64.6931C12.6691 64.8582 12.831 65.0617 12.9923 65.3111C13.0131 65.346 13.0339 65.3809 13.0621 65.4147C13.0828 65.4496 13.1122 65.4907 13.1416 65.5319C13.265 65.7338 13.3751 65.8997 13.4695 66.0146C13.5639 66.1295 13.6783 66.226 13.8179 66.288C13.9574 66.35 14.1209 66.3701 14.3071 66.3408C14.5678 66.2997 14.7583 66.201 14.8787 66.0447C14.9992 65.8883 15.0443 65.6904 15.008 65.4595C14.9716 65.2286 14.8913 65.058 14.766 64.9403C14.6394 64.8152 14.4579 64.7293 14.2204 64.6751C14.1498 64.6633 14.093 64.6417 14.0585 64.6166C14.0241 64.5915 14.0045 64.564 13.9986 64.5268C13.9951 64.5045 13.9967 64.466 14.0096 64.4029L14.0918 63.9549C14.1114 63.8373 14.1616 63.7683 14.2436 63.7554C14.2883 63.7484 14.3341 63.7488 14.3823 63.7641C14.808 63.8498 15.14 64.0189 15.3994 64.2605C15.6525 64.5107 15.8166 64.8742 15.894 65.3658C15.9503 65.7233 15.9238 66.0405 15.8147 66.3172C15.7056 66.5939 15.535 66.8192 15.3028 66.9931C15.0695 67.1596 14.8045 67.27 14.4991 67.3181C14.1639 67.3709 13.8789 67.3547 13.6367 67.2707C13.4019 67.1855 13.1899 67.051 13.0069 66.8584C12.824 66.6658 12.6206 66.3925 12.3993 66.0533C12.2074 65.7553 12.0358 65.5381 11.8931 65.4079C11.7505 65.2776 11.5663 65.2227 11.3726 65.2532L11.2162 65.2778L11.5668 67.5049C11.5809 67.5943 11.5679 67.6574 11.5365 67.7005C11.5051 67.7436 11.4404 67.7691 11.3436 67.7843L10.9786 67.8418C10.8818 67.857 10.8124 67.8527 10.7693 67.8213C10.7262 67.7899 10.6945 67.7339 10.6804 67.6445L10.2055 64.6278C10.1914 64.5384 10.2044 64.4753 10.2358 64.4322Z" fill="#23221F"/>
<path id="Vector_21" d="M11.2716 71.0092C11.2716 71.0092 11.3676 70.9406 11.4645 70.9254L12.4477 70.7706L12.0936 68.5211C12.0795 68.4317 12.0925 68.3686 12.1238 68.3255C12.1552 68.2824 12.2199 68.2569 12.3168 68.2417L12.5849 68.1995C12.6668 68.1866 12.7276 68.1847 12.7746 68.1925C12.8217 68.2004 12.8797 68.2294 12.9463 68.2647L16.3462 69.9813C16.4214 70.0229 16.4818 70.0669 16.5123 70.1155C16.5417 70.1567 16.5671 70.2213 16.5812 70.3107L16.6516 70.7576C16.6656 70.847 16.6613 70.9164 16.6225 70.9607C16.5911 71.0038 16.5276 71.0367 16.4308 71.0519L13.4215 71.5257L13.4918 71.9726C13.5059 72.062 13.5004 72.1239 13.4616 72.1682C13.4302 72.2113 13.3655 72.2367 13.2687 72.252L12.9484 72.3024C12.8515 72.3177 12.7822 72.3133 12.7391 72.2819C12.6959 72.2505 12.6642 72.1945 12.6501 72.1051L12.5798 71.6582L11.5966 71.8129C11.4997 71.8282 11.4292 71.8164 11.3861 71.785C11.343 71.7536 11.3101 71.6901 11.296 71.6007L11.2339 71.206C11.221 71.124 11.2339 71.0609 11.2653 71.0178L11.2716 71.0092ZM13.2745 70.6404L15.2708 70.3262L13.0482 69.2029L13.2745 70.6404Z" fill="#23221F"/>
</g>
<g id="Group_7">
<path id="Vector_22" d="M34.2324 216.861C34.2324 216.861 34.3284 216.792 34.4253 216.777L35.0584 216.677C35.3787 216.627 35.6562 216.644 35.8996 216.736C36.1356 216.828 36.3389 216.957 36.5023 217.122C36.6657 217.287 36.8275 217.49 36.9889 217.74C37.0097 217.775 37.0305 217.81 37.0587 217.843C37.0794 217.878 37.1088 217.919 37.1382 217.961C37.2616 218.163 37.3717 218.328 37.4661 218.443C37.5605 218.558 37.6749 218.655 37.8144 218.717C37.954 218.779 38.1174 218.799 38.3036 218.769C38.5643 218.728 38.7549 218.63 38.8753 218.473C38.9957 218.317 39.0409 218.119 39.0045 217.888C38.9682 217.657 38.8879 217.487 38.7625 217.369C38.636 217.244 38.4545 217.158 38.217 217.104C38.1464 217.092 38.0896 217.07 38.0551 217.045C38.0206 217.02 38.0011 216.993 37.9952 216.955C37.9917 216.933 37.9932 216.895 38.0062 216.832L38.0884 216.384C38.108 216.266 38.1582 216.197 38.2401 216.184C38.2848 216.177 38.3307 216.178 38.3789 216.193C38.8046 216.278 39.1365 216.448 39.3959 216.689C39.6491 216.939 39.8132 217.303 39.8905 217.794C39.9468 218.152 39.9204 218.469 39.8113 218.746C39.7022 219.023 39.5316 219.248 39.2994 219.422C39.0673 219.596 38.8011 219.699 38.4957 219.747C38.1605 219.8 37.8755 219.783 37.6333 219.699C37.3985 219.614 37.1865 219.48 37.0035 219.287C36.8205 219.095 36.6172 218.821 36.3959 218.482C36.2039 218.184 36.0323 217.967 35.8897 217.837C35.7385 217.7 35.5628 217.651 35.3692 217.682L35.2128 217.706L35.5634 219.934C35.5774 220.023 35.5645 220.086 35.5331 220.129C35.5017 220.172 35.437 220.198 35.3402 220.213L34.9752 220.271C34.8784 220.286 34.809 220.281 34.7659 220.25C34.7228 220.219 34.691 220.163 34.677 220.073L34.2021 217.056C34.188 216.967 34.201 216.904 34.2324 216.861Z" fill="#23221F"/>
<path id="Vector_23" d="M35.3055 221.593C35.5828 221.221 35.9965 220.988 36.5551 220.9L38.4769 220.597C39.0281 220.51 39.4934 220.605 39.8715 220.874C40.2497 221.142 40.4776 221.572 40.5679 222.146C40.6582 222.719 40.5647 223.192 40.2948 223.563C40.0175 223.935 39.6113 224.166 39.0526 224.254L37.1309 224.557C36.5722 224.645 36.107 224.55 35.7288 224.281C35.3506 224.013 35.1239 223.591 35.0336 223.017C34.9433 222.443 35.0356 221.963 35.3055 221.593ZM36.0465 222.178C35.9073 222.36 35.8605 222.597 35.9051 222.88C35.9496 223.163 36.0667 223.373 36.2541 223.497C36.4414 223.62 36.6852 223.665 36.9831 223.618L38.9049 223.316C39.2028 223.269 39.422 223.158 39.5538 222.977C39.6868 222.804 39.7336 222.567 39.689 222.284C39.6444 222.001 39.5261 221.783 39.3463 221.659C39.1652 221.527 38.9226 221.489 38.6246 221.536L36.7029 221.838C36.4049 221.885 36.1858 221.996 36.0465 222.178Z" fill="#23221F"/>
<path id="Vector_24" d="M35.6249 225.702C35.6249 225.702 35.721 225.634 35.8178 225.618L36.451 225.519C36.7713 225.468 37.0488 225.486 37.2922 225.577C37.5281 225.67 37.7315 225.798 37.8949 225.963C38.0583 226.128 38.2201 226.332 38.3815 226.581C38.4023 226.616 38.423 226.651 38.4512 226.685C38.472 226.72 38.5014 226.761 38.5308 226.802C38.6541 227.004 38.7642 227.17 38.8587 227.285C38.9531 227.4 39.0675 227.496 39.207 227.558C39.3465 227.62 39.51 227.64 39.6962 227.611C39.9569 227.57 40.1475 227.471 40.2679 227.315C40.3883 227.158 40.4335 226.96 40.3971 226.729C40.3608 226.499 40.2805 226.328 40.1551 226.21C40.0286 226.085 39.8471 225.999 39.6096 225.945C39.539 225.933 39.4822 225.912 39.4477 225.887C39.4132 225.861 39.3936 225.834 39.3878 225.797C39.3843 225.774 39.3858 225.736 39.3988 225.673L39.4809 225.225C39.5006 225.107 39.5508 225.038 39.6327 225.025C39.6774 225.018 39.7233 225.019 39.7715 225.034C40.1972 225.12 40.5291 225.289 40.7885 225.53C41.0416 225.781 41.2057 226.144 41.2831 226.636C41.3394 226.993 41.313 227.31 41.2039 227.587C41.0948 227.864 40.9241 228.089 40.692 228.263C40.4599 228.437 40.1936 228.54 39.8882 228.588C39.553 228.641 39.2681 228.625 39.0259 228.541C38.7911 228.456 38.5791 228.321 38.3961 228.128C38.2131 227.936 38.0098 227.662 37.7885 227.323C37.5965 227.025 37.4249 226.808 37.2823 226.678C37.131 226.541 36.9554 226.493 36.7618 226.523L36.6053 226.548L36.9559 228.775C36.97 228.864 36.9571 228.927 36.9257 228.971C36.8943 229.014 36.8296 229.039 36.7328 229.054L36.3678 229.112C36.2709 229.127 36.2016 229.123 36.1585 229.091C36.1154 229.06 36.0836 229.004 36.0695 228.914L35.5947 225.898C35.5806 225.808 35.5936 225.745 35.6249 225.702Z" fill="#23221F"/>
<path id="Vector_25" d="M36.6593 232.28C36.6593 232.28 36.7553 232.212 36.8522 232.196L37.8354 232.042L37.4813 229.792C37.4672 229.703 37.4802 229.64 37.5115 229.597C37.5429 229.553 37.6076 229.528 37.7045 229.513L37.9726 229.47C38.0545 229.458 38.1153 229.456 38.1623 229.463C38.2094 229.471 38.2674 229.5 38.334 229.536L41.7339 231.252C41.8091 231.294 41.8695 231.338 41.9 231.386C41.9294 231.428 41.9548 231.492 41.9689 231.582L42.0393 232.029C42.0533 232.118 42.049 232.187 42.0102 232.232C41.9788 232.275 41.9153 232.308 41.8184 232.323L38.8092 232.797L38.8795 233.244C38.8936 233.333 38.8881 233.395 38.8493 233.439C38.8179 233.482 38.7532 233.508 38.6564 233.523L38.3361 233.573C38.2392 233.589 38.1699 233.584 38.1268 233.553C38.0836 233.522 38.0519 233.465 38.0378 233.376L37.9675 232.929L36.9842 233.084C36.8874 233.099 36.8169 233.087 36.7738 233.056C36.7307 233.025 36.6978 232.961 36.6837 232.872L36.6215 232.477C36.6075 232.388 36.6204 232.324 36.653 232.289L36.6593 232.28ZM38.6622 231.911L40.6584 231.597L38.4359 230.474L38.6622 231.911Z" fill="#23221F"/>
</g>
<g id="Group_8">
<path id="Vector_26" d="M20.192 127.671C20.192 127.671 20.2892 127.61 20.3861 127.595L25.1905 126.839C25.2873 126.823 25.3567 126.828 25.3986 126.852C25.4405 126.876 25.4734 126.939 25.4875 127.028L25.7724 128.838C25.8522 129.345 25.7591 129.772 25.5006 130.118C25.2346 130.465 24.8422 130.687 24.2984 130.773C23.7546 130.858 23.3141 130.775 22.9618 130.525C22.6095 130.275 22.3897 129.898 22.31 129.391L22.1341 128.274L20.5401 128.525C20.4433 128.54 20.3739 128.536 20.3308 128.504C20.2876 128.473 20.2559 128.417 20.243 128.335L20.1692 127.866C20.1551 127.776 20.168 127.713 20.1994 127.67L20.192 127.671ZM23.1658 129.203C23.2033 129.441 23.306 129.608 23.4761 129.719C23.6462 129.83 23.8653 129.864 24.1334 129.822C24.4016 129.779 24.5996 129.68 24.7349 129.521C24.8702 129.362 24.9154 129.164 24.879 128.933L24.7102 127.861L22.997 128.13L23.1658 129.203Z" fill="#23221F"/>
<path id="Vector_27" d="M20.9075 132.215C20.9075 132.215 21.0036 132.146 21.1004 132.131L25.9048 131.375C26.0017 131.359 26.071 131.364 26.1141 131.395C26.1561 131.419 26.189 131.483 26.203 131.572L26.495 133.427C26.5724 133.918 26.4844 134.329 26.2408 134.673C25.9898 135.018 25.6173 135.221 25.1033 135.302C24.716 135.363 24.3977 135.329 24.1347 135.21C23.8717 135.092 23.6715 134.886 23.5352 134.603C23.4583 134.744 23.3407 134.87 23.1736 134.972L21.7082 135.944C21.6745 135.972 21.631 135.986 21.5863 135.993C21.5044 136.006 21.4503 135.954 21.4327 135.842L21.3588 135.373C21.3366 135.231 21.335 135.124 21.3492 135.069C21.3633 135.013 21.4221 134.951 21.5131 134.898L22.7 134.146C22.8459 134.055 22.9545 133.969 23.0208 133.905C23.0871 133.841 23.1299 133.773 23.1479 133.694C23.166 133.615 23.1657 133.516 23.1446 133.382L23.0519 132.793L21.2568 133.076C21.16 133.091 21.0906 133.087 21.0475 133.055C21.0044 133.024 20.9726 132.968 20.9597 132.886L20.8859 132.417C20.8718 132.327 20.8847 132.264 20.9161 132.221L20.9075 132.215ZM24.0448 133.767C24.0788 133.983 24.1728 134.143 24.3343 134.248C24.4883 134.353 24.6925 134.39 24.9458 134.35C25.199 134.31 25.3672 134.215 25.4814 134.067C25.5955 133.919 25.6356 133.738 25.6016 133.522L25.4257 132.404L23.8689 132.649L24.0448 133.767Z" fill="#23221F"/>
<path id="Vector_28" d="M22.0449 137.165C22.3399 136.759 22.7896 136.513 23.393 136.418L25.0242 136.161C25.635 136.065 26.1387 136.161 26.5365 136.458C26.9342 136.754 27.1892 137.21 27.2888 137.843C27.3885 138.476 27.2946 138.995 26.9985 139.392C26.7023 139.79 26.2537 140.044 25.6504 140.139L24.0191 140.396C23.4083 140.492 22.9047 140.396 22.5069 140.099C22.1092 139.803 21.8542 139.347 21.7545 138.714C21.6548 138.081 21.7488 137.562 22.0449 137.165ZM22.7859 137.75C22.6353 137.957 22.5795 138.233 22.6334 138.576C22.6874 138.918 22.8178 139.165 23.0321 139.315C23.2465 139.464 23.5213 139.512 23.8714 139.457L25.5175 139.198C25.8676 139.143 26.1217 139.011 26.2723 138.804C26.4229 138.598 26.4787 138.322 26.4248 137.979C26.3709 137.636 26.2404 137.39 26.0261 137.24C25.8117 137.091 25.5369 137.042 25.1869 137.098L23.5407 137.357C23.1906 137.412 22.9365 137.543 22.7859 137.75Z" fill="#23221F"/>
<path id="Vector_29" d="M22.4048 141.727C22.4048 141.727 22.502 141.666 22.5988 141.65L27.4032 140.894C27.5001 140.879 27.5694 140.883 27.6114 140.907C27.6533 140.931 27.6862 140.994 27.7003 141.084L27.9465 142.648C28.0473 143.289 27.9534 143.807 27.6585 144.212C27.3635 144.618 26.9063 144.865 26.288 144.963L24.9249 145.177C24.3067 145.274 23.7956 145.179 23.3904 144.884C22.9852 144.589 22.7365 144.125 22.6356 143.484L22.3894 141.92C22.3753 141.83 22.3883 141.767 22.4196 141.724L22.4048 141.727ZM23.502 143.363C23.5559 143.706 23.6864 143.952 23.9007 144.102C24.1151 144.251 24.3973 144.298 24.7623 144.241L26.1403 144.024C26.4978 143.968 26.7594 143.835 26.9174 143.627C27.0755 143.419 27.1239 143.144 27.0699 142.801L26.9304 141.915L23.3699 142.475L23.5095 143.362L23.502 143.363Z" fill="#23221F"/>
<path id="Vector_30" d="M23.1538 146.532C23.1777 146.49 23.2413 146.457 23.3306 146.443L28.1872 145.678C28.2766 145.664 28.3385 145.67 28.3742 145.702C28.4098 145.735 28.4329 145.785 28.4447 145.859L28.5256 146.373C28.5361 146.44 28.5294 146.495 28.5055 146.537C28.4804 146.571 28.4243 146.603 28.3349 146.617L23.4784 147.381C23.389 147.396 23.3259 147.383 23.2828 147.351C23.2471 147.319 23.2154 147.263 23.2037 147.188L23.1263 146.696C23.1157 146.629 23.1213 146.567 23.1526 146.524L23.1538 146.532Z" fill="#23221F"/>
<path id="Vector_31" d="M23.8877 148.867C24.1827 148.462 24.6324 148.215 25.2357 148.12L26.8745 147.862C27.4778 147.767 27.9815 147.864 28.3792 148.16C28.777 148.456 29.032 148.912 29.1316 149.545C29.2876 150.536 28.969 151.227 28.1671 151.613C28.1173 151.636 28.0813 151.649 28.044 151.655C27.9919 151.663 27.9523 151.654 27.919 151.637C27.8845 151.612 27.8551 151.57 27.8159 151.515L27.6064 151.106C27.5747 151.05 27.5614 151.014 27.5579 150.991C27.5461 150.917 27.6038 150.847 27.7234 150.782C27.9437 150.679 28.0963 150.532 28.1822 150.351C28.2681 150.169 28.2949 149.952 28.2527 149.683C28.1425 148.983 27.7298 148.689 27.0222 148.801L25.3686 149.061C24.6535 149.174 24.3511 149.58 24.4613 150.28C24.5164 150.63 24.6331 150.887 24.804 151.051C24.9748 151.215 25.2049 151.27 25.4805 151.227L25.9349 151.155L25.7766 150.15C25.7637 150.068 25.7766 150.004 25.808 149.961C25.8394 149.918 25.9041 149.893 26.0009 149.878L26.351 149.822C26.4478 149.807 26.5172 149.812 26.5603 149.843C26.6034 149.874 26.6352 149.93 26.6481 150.012L26.9095 151.673C26.9236 151.763 26.9107 151.826 26.8793 151.869C26.8479 151.912 26.7832 151.938 26.6864 151.953L25.651 152.116C25.3084 152.17 24.9913 152.143 24.6985 152.029C24.4057 151.915 24.1694 151.723 23.9661 151.45C23.7702 151.175 23.632 150.831 23.5675 150.421C23.4678 149.788 23.5617 149.269 23.8579 148.871L23.8877 148.867Z" fill="#23221F"/>
<path id="Vector_32" d="M24.238 153.369C24.238 153.369 24.334 153.3 24.4309 153.285L29.2353 152.528C29.3321 152.513 29.4015 152.518 29.4446 152.549C29.4877 152.58 29.5194 152.636 29.5335 152.726L29.5956 153.121C29.6109 153.217 29.6077 153.294 29.5936 153.35C29.5783 153.398 29.5332 153.451 29.4571 153.501L26.7988 155.332L29.8835 156.258C29.9713 156.283 30.0367 156.311 30.0661 156.352C30.0943 156.385 30.1198 156.45 30.135 156.547L30.203 156.979C30.2183 157.076 30.2053 157.139 30.1739 157.182C30.1426 157.225 30.0779 157.251 29.981 157.266L25.1766 158.022C25.0798 158.037 25.0104 158.033 24.9673 158.002C24.9242 157.97 24.8925 157.914 24.8772 157.817L24.8127 157.408C24.7987 157.318 24.8105 157.248 24.843 157.212C24.8744 157.169 24.9391 157.144 25.0359 157.128L27.3152 156.769C27.7919 156.694 28.298 156.661 28.8272 156.676L28.8202 156.632C28.2965 156.554 27.814 156.447 27.3738 156.317L26.0016 155.892C25.9287 155.866 25.8719 155.844 25.8362 155.812C25.8006 155.779 25.7775 155.729 25.7657 155.655L25.72 155.364C25.7083 155.29 25.715 155.235 25.7315 155.194C25.7479 155.154 25.7954 155.116 25.864 155.067L27.0357 154.218C27.2341 154.072 27.4286 153.95 27.618 153.844C27.8074 153.738 28.0415 153.625 28.3265 153.496L28.3183 153.444C27.7898 153.626 27.299 153.757 26.8372 153.83L24.5579 154.188C24.461 154.204 24.3916 154.199 24.3485 154.168C24.3054 154.137 24.2737 154.08 24.2596 153.991L24.1963 153.589C24.1822 153.499 24.1952 153.436 24.2266 153.393L24.238 153.369Z" fill="#23221F"/>
<path id="Vector_33" d="M25.1535 158.705C25.1535 158.705 25.2142 158.703 25.2773 158.716L30.4087 159.649C30.4953 159.666 30.5608 159.694 30.5964 159.726C30.6321 159.759 30.6575 159.823 30.6704 159.905L30.7455 160.382C30.7584 160.464 30.754 160.533 30.7313 160.583C30.7085 160.632 30.6622 160.678 30.585 160.72L25.9797 163.178C25.9374 163.2 25.9013 163.213 25.8641 163.219C25.7821 163.232 25.7281 163.179 25.7081 163.053L25.6378 162.606C25.6167 162.472 25.6163 162.373 25.6367 162.308C25.6571 162.244 25.7109 162.197 25.7967 162.161L26.7033 161.713L26.4101 159.851L25.4098 159.703C25.3169 159.695 25.2503 159.659 25.2123 159.612C25.1743 159.564 25.1441 159.47 25.1242 159.343L25.0573 158.919C25.0374 158.792 25.0727 158.726 25.1546 158.713L25.1535 158.705ZM27.453 161.335L28.9433 160.62C29.2856 160.467 29.5593 160.363 29.7867 160.304L29.7796 160.259C29.4907 160.267 29.1994 160.259 28.8812 160.225L27.2419 159.995L27.4541 161.343L27.453 161.335Z" fill="#23221F"/>
</g>
</g>
</g>
</g>
</svg>
