<svg width="231" height="246" viewBox="0 0 231 246" fill="none" xmlns="http://www.w3.org/2000/svg">
<g id="Frame prodigma">
<path id="Vector" d="M-0.00882748 214.806L196.602 245.739L230.345 31.2664L33.7349 0.333008L-0.00882748 214.806ZM166.093 232.535L33.0728 211.606L64.2371 13.5285L197.257 34.457L166.093 232.535ZM213.955 54.2281C209.211 57.5961 202.634 56.5613 199.146 51.8983C203.89 48.5303 210.467 49.5652 213.955 54.2281ZM210.448 76.5149C205.705 79.8829 199.128 78.848 195.64 74.1851C200.383 70.8171 206.961 71.8519 210.448 76.5149ZM206.941 98.8091C202.197 102.177 195.62 101.142 192.132 96.4792C196.875 93.1187 203.452 94.1535 206.941 98.8091ZM203.433 121.103C198.69 124.471 192.112 123.436 188.624 118.781C193.367 115.413 199.944 116.448 203.433 121.103ZM199.924 143.405C195.182 146.765 188.604 145.738 185.116 141.075C189.859 137.707 196.437 138.742 199.924 143.405ZM196.418 165.692C191.676 169.052 185.097 168.025 181.61 163.362C186.353 159.994 192.93 161.029 196.418 165.692ZM192.91 187.986C188.167 191.354 181.589 190.319 178.102 185.656C182.845 182.288 189.423 183.323 192.91 187.986ZM189.402 210.28C184.659 213.648 178.082 212.613 174.594 207.95C179.338 204.582 185.915 205.617 189.402 210.28ZM42.2828 27.2184C47.0187 23.8493 53.6035 24.8853 57.0761 29.5459C52.3401 32.915 45.7554 31.8791 42.2828 27.2184ZM38.7763 49.5052C43.5123 46.136 50.097 47.172 53.5696 51.8326C48.8337 55.2018 42.2489 54.1658 38.7763 49.5052ZM35.2687 71.7993C40.0035 68.4376 46.5882 69.4736 50.062 74.1268C45.326 77.496 38.7413 76.46 35.2687 71.7993ZM31.7599 94.101C36.4959 90.7318 43.0806 91.7678 46.5544 96.421C41.8184 99.7901 35.2337 98.7541 31.7599 94.101ZM28.2523 116.395C32.9883 113.026 39.573 114.062 43.0456 118.723C38.3108 122.084 31.7249 121.056 28.2523 116.395ZM24.7459 138.682C29.4818 135.313 36.0665 136.349 39.5391 141.009C34.8044 144.371 28.2185 143.342 24.7459 138.682ZM21.2383 160.976C25.9742 157.607 32.5589 158.643 36.0315 163.303C31.2956 166.673 24.7108 165.637 21.2383 160.976ZM17.7306 183.27C22.4666 179.901 29.0513 180.937 32.5239 185.598C27.7879 188.967 21.2032 187.931 17.7306 183.27ZM14.2242 205.557C18.9601 202.188 25.5449 203.224 29.0175 207.884C24.2815 211.254 17.6968 210.218 14.2242 205.557ZM171.088 230.237C175.831 226.869 182.409 227.904 185.896 232.567C181.153 235.935 174.575 234.9 171.088 230.237Z" fill="#DDD7CE"/>
<g id="Group 17">
<g id="Group">
<g id="Group_2">
<path id="Vector_2" d="M216.962 54.8393C216.962 54.8393 217.074 54.8036 217.171 54.8189L217.804 54.9185C218.124 54.9689 218.383 55.0706 218.587 55.2324C218.79 55.3942 218.937 55.5776 219.042 55.7849C219.146 55.9922 219.238 56.2356 219.315 56.5225C219.324 56.5621 219.333 56.6017 219.349 56.6425C219.359 56.682 219.374 56.7302 219.389 56.7784C219.445 57.0085 219.498 57.2002 219.553 57.3385C219.607 57.4769 219.687 57.6039 219.8 57.7057C219.914 57.8076 220.064 57.8769 220.25 57.9062C220.511 57.9472 220.722 57.9118 220.885 57.8C221.047 57.6882 221.151 57.5137 221.188 57.2828C221.224 57.0518 221.2 56.8649 221.117 56.7144C221.035 56.5565 220.888 56.4189 220.679 56.2944C220.615 56.2615 220.568 56.2235 220.543 56.189C220.518 56.1545 220.508 56.1224 220.513 56.0852C220.517 56.0628 220.53 56.0267 220.562 55.9707L220.778 55.5695C220.833 55.4637 220.902 55.4134 220.983 55.4263C221.028 55.4334 221.072 55.4478 221.113 55.4772C221.492 55.6895 221.756 55.9524 221.928 56.2619C222.092 56.5778 222.137 56.9741 222.059 57.4657C222.003 57.8233 221.881 58.117 221.692 58.3468C221.503 58.5766 221.271 58.7386 220.997 58.8329C220.724 58.9196 220.438 58.9433 220.132 58.8953C219.797 58.8425 219.531 58.7396 219.326 58.5852C219.129 58.4321 218.969 58.2389 218.854 57.9994C218.739 57.76 218.629 57.4374 218.523 57.0467C218.431 56.7041 218.335 56.4446 218.239 56.2769C218.143 56.1092 217.985 56.0003 217.791 55.9698L217.635 55.9452L217.284 58.1724C217.27 58.2618 217.239 58.3179 217.196 58.3493C217.152 58.3806 217.083 58.385 216.986 58.3698L216.621 58.3123C216.524 58.2971 216.46 58.2716 216.428 58.2285C216.397 58.1854 216.384 58.1223 216.398 58.0329L216.873 55.0162C216.887 54.9268 216.918 54.8707 216.962 54.8393Z" fill="#23221F"/>
<path id="Vector_3" d="M216.531 59.6641C216.909 59.3954 217.374 59.3006 217.933 59.3885L219.855 59.6909C220.406 59.7776 220.82 60.0106 221.097 60.3825C221.374 60.7544 221.459 61.2333 221.369 61.8069C221.279 62.3805 221.045 62.8016 220.674 63.0715C220.296 63.3402 219.838 63.4361 219.279 63.3482L217.358 63.0459C216.799 62.958 216.385 62.725 216.108 62.3531C215.831 61.9813 215.745 61.5097 215.835 60.9362C215.925 60.3626 216.16 59.934 216.531 59.6641ZM217.056 60.449C216.868 60.5797 216.751 60.7902 216.706 61.0733C216.662 61.3563 216.709 61.5927 216.849 61.7674C216.989 61.9422 217.207 62.0605 217.505 62.1073L219.427 62.4097C219.725 62.4566 219.968 62.4184 220.149 62.2866C220.329 62.1622 220.446 61.9517 220.49 61.6686C220.535 61.3856 220.489 61.1418 220.356 60.9682C220.224 60.7871 220.005 60.6763 219.707 60.6294L217.785 60.3271C217.487 60.2802 217.245 60.3184 217.056 60.449Z" fill="#23221F"/>
<path id="Vector_4" d="M215.571 63.6807C215.571 63.6807 215.683 63.6449 215.78 63.6602L216.413 63.7598C216.734 63.8102 216.992 63.912 217.196 64.0737C217.4 64.2355 217.546 64.4189 217.651 64.6262C217.756 64.8335 217.847 65.0769 217.924 65.3638C217.933 65.4034 217.942 65.443 217.959 65.4838C217.968 65.5233 217.983 65.5715 217.999 65.6198C218.054 65.8498 218.108 66.0415 218.162 66.1798C218.217 66.3182 218.296 66.4452 218.41 66.547C218.524 66.6489 218.673 66.7182 218.859 66.7475C219.12 66.7885 219.332 66.7531 219.494 66.6413C219.657 66.5295 219.761 66.355 219.797 66.1241C219.833 65.8932 219.809 65.7062 219.726 65.5557C219.644 65.3978 219.498 65.2602 219.288 65.1357C219.225 65.1028 219.177 65.0648 219.152 65.0303C219.127 64.9959 219.117 64.9637 219.123 64.9265C219.126 64.9041 219.14 64.8681 219.171 64.812L219.387 64.4108C219.442 64.305 219.511 64.2547 219.593 64.2676C219.638 64.2747 219.681 64.2891 219.722 64.3185C220.101 64.5308 220.365 64.7937 220.538 65.1033C220.702 65.4191 220.746 65.8154 220.669 66.307C220.613 66.6646 220.49 66.9583 220.301 67.1881C220.112 67.4179 219.881 67.5799 219.606 67.6742C219.333 67.761 219.047 67.7846 218.742 67.7366C218.407 67.6838 218.14 67.5809 217.936 67.4266C217.738 67.2734 217.578 67.0802 217.463 66.8408C217.348 66.6013 217.238 66.2787 217.132 65.888C217.041 65.5454 216.944 65.286 216.848 65.1182C216.753 64.9505 216.594 64.8416 216.401 64.8111L216.244 64.7865L215.894 67.0137C215.88 67.1031 215.848 67.1592 215.805 67.1906C215.762 67.2219 215.692 67.2263 215.596 67.2111L215.231 67.1536C215.134 67.1384 215.069 67.113 215.038 67.0698C215.006 67.0267 214.993 66.9636 215.007 66.8743L215.482 63.8575C215.496 63.7681 215.528 63.712 215.571 63.6807Z" fill="#23221F"/>
<path id="Vector_5" d="M214.537 70.2581C214.537 70.2581 214.649 70.2224 214.746 70.2376L215.729 70.3923L216.083 68.1428C216.097 68.0534 216.129 67.9973 216.172 67.9659C216.215 67.9345 216.284 67.9302 216.381 67.9454L216.649 67.9876C216.731 68.0005 216.79 68.0173 216.832 68.0393C216.874 68.0612 216.921 68.1066 216.973 68.1607L219.682 70.8386C219.74 70.9013 219.784 70.9616 219.798 71.0173C219.814 71.0655 219.818 71.1349 219.804 71.2243L219.734 71.6712C219.72 71.7606 219.694 71.8253 219.644 71.8555C219.601 71.8869 219.53 71.8987 219.433 71.8834L216.424 71.41L216.354 71.8569C216.34 71.9463 216.315 72.0035 216.265 72.0337C216.222 72.0651 216.152 72.0695 216.055 72.0542L215.735 72.0038C215.638 71.9886 215.574 71.9632 215.542 71.9201C215.511 71.8769 215.498 71.8138 215.512 71.7245L215.582 71.2775L214.599 71.1228C214.502 71.1076 214.439 71.0747 214.407 71.0316C214.376 70.9885 214.364 70.9179 214.378 70.8286L214.44 70.4338C214.453 70.3518 214.485 70.2958 214.528 70.2644L214.537 70.2581ZM216.556 70.5224L218.552 70.8365L216.782 69.0848L216.556 70.5224Z" fill="#23221F"/>
</g>
<g id="Group_3">
<path id="Vector_6" d="M191.588 216.112C191.588 216.112 191.7 216.076 191.797 216.091L192.43 216.191C192.75 216.241 193.009 216.343 193.213 216.505C193.409 216.666 193.563 216.85 193.668 217.057C193.772 217.265 193.864 217.508 193.941 217.795C193.95 217.835 193.959 217.874 193.975 217.915C193.984 217.955 194 218.003 194.015 218.051C194.071 218.281 194.124 218.473 194.179 218.611C194.233 218.749 194.313 218.876 194.426 218.978C194.54 219.08 194.69 219.149 194.876 219.179C195.137 219.22 195.348 219.184 195.511 219.072C195.673 218.961 195.777 218.786 195.814 218.555C195.85 218.324 195.826 218.137 195.743 217.987C195.661 217.829 195.514 217.691 195.305 217.567C195.241 217.534 195.194 217.496 195.169 217.461C195.144 217.427 195.134 217.395 195.139 217.358C195.143 217.335 195.156 217.299 195.188 217.243L195.404 216.842C195.459 216.736 195.528 216.686 195.609 216.699C195.654 216.706 195.698 216.72 195.739 216.75C196.118 216.962 196.382 217.225 196.554 217.534C196.718 217.85 196.763 218.247 196.685 218.738C196.629 219.096 196.507 219.389 196.318 219.619C196.129 219.849 195.897 220.011 195.623 220.105C195.349 220.2 195.064 220.216 194.758 220.168C194.423 220.115 194.157 220.012 193.952 219.858C193.755 219.705 193.595 219.511 193.48 219.272C193.365 219.032 193.255 218.71 193.149 218.319C193.057 217.977 192.961 217.717 192.865 217.549C192.763 217.373 192.611 217.273 192.417 217.242L192.261 217.218L191.91 219.445C191.896 219.534 191.865 219.59 191.822 219.622C191.778 219.653 191.709 219.657 191.612 219.642L191.247 219.585C191.15 219.57 191.086 219.544 191.054 219.501C191.023 219.458 191.01 219.395 191.024 219.305L191.499 216.289C191.513 216.199 191.544 216.143 191.588 216.112Z" fill="#23221F"/>
<path id="Vector_7" d="M191.155 220.944C191.533 220.676 191.998 220.581 192.557 220.669L194.479 220.971C195.03 221.058 195.444 221.291 195.721 221.663C195.998 222.035 196.083 222.514 195.993 223.087C195.903 223.661 195.669 224.082 195.298 224.352C194.92 224.621 194.462 224.716 193.903 224.629L191.982 224.326C191.423 224.238 191.009 224.005 190.732 223.633C190.455 223.262 190.369 222.79 190.459 222.216C190.549 221.643 190.784 221.214 191.155 220.944ZM191.68 221.729C191.492 221.86 191.375 222.071 191.33 222.354C191.286 222.637 191.333 222.873 191.473 223.048C191.613 223.222 191.831 223.341 192.129 223.388L194.051 223.69C194.349 223.737 194.592 223.699 194.773 223.567C194.953 223.443 195.07 223.232 195.114 222.949C195.159 222.666 195.113 222.422 194.98 222.248C194.848 222.067 194.629 221.957 194.331 221.91L192.409 221.607C192.112 221.56 191.869 221.599 191.68 221.729Z" fill="#23221F"/>
<path id="Vector_8" d="M190.198 224.953C190.198 224.953 190.31 224.918 190.407 224.933L191.04 225.032C191.361 225.083 191.619 225.185 191.823 225.346C192.019 225.507 192.173 225.692 192.278 225.899C192.383 226.106 192.474 226.35 192.551 226.637C192.56 226.676 192.569 226.716 192.586 226.756C192.595 226.796 192.61 226.844 192.625 226.892C192.681 227.123 192.735 227.314 192.789 227.453C192.844 227.591 192.923 227.718 193.037 227.82C193.151 227.922 193.3 227.991 193.486 228.02C193.747 228.061 193.959 228.026 194.121 227.914C194.284 227.802 194.388 227.628 194.424 227.397C194.46 227.166 194.436 226.979 194.353 226.828C194.271 226.67 194.125 226.533 193.915 226.408C193.852 226.375 193.804 226.338 193.779 226.303C193.754 226.269 193.744 226.236 193.75 226.199C193.753 226.177 193.767 226.141 193.798 226.085L194.014 225.684C194.069 225.578 194.138 225.527 194.22 225.54C194.265 225.547 194.308 225.562 194.349 225.591C194.728 225.803 194.992 226.066 195.165 226.376C195.329 226.692 195.373 227.088 195.296 227.58C195.24 227.937 195.117 228.231 194.928 228.461C194.739 228.691 194.508 228.853 194.233 228.947C193.959 229.041 193.674 229.057 193.369 229.009C193.033 228.957 192.767 228.854 192.563 228.699C192.365 228.546 192.205 228.353 192.09 228.113C191.975 227.874 191.865 227.551 191.759 227.161C191.668 226.818 191.571 226.559 191.475 226.391C191.373 226.215 191.221 226.114 191.028 226.084L190.871 226.059L190.521 228.286C190.507 228.376 190.475 228.432 190.432 228.463C190.389 228.495 190.319 228.499 190.223 228.484L189.858 228.426C189.761 228.411 189.696 228.386 189.665 228.343C189.633 228.299 189.62 228.236 189.634 228.147L190.109 225.13C190.123 225.041 190.155 224.985 190.198 224.953Z" fill="#23221F"/>
<path id="Vector_9" d="M189.162 231.531C189.162 231.531 189.274 231.495 189.371 231.511L190.354 231.665L190.708 229.416C190.722 229.326 190.754 229.27 190.797 229.239C190.84 229.207 190.909 229.203 191.006 229.218L191.274 229.261C191.356 229.273 191.415 229.29 191.457 229.312C191.499 229.334 191.546 229.38 191.598 229.434L194.307 232.112C194.365 232.174 194.409 232.235 194.423 232.29C194.439 232.338 194.443 232.408 194.429 232.497L194.359 232.944C194.345 233.034 194.319 233.098 194.269 233.128C194.226 233.16 194.155 233.172 194.058 233.156L191.049 232.683L190.979 233.13C190.965 233.219 190.94 233.276 190.89 233.307C190.847 233.338 190.777 233.342 190.68 233.327L190.36 233.277C190.263 233.262 190.199 233.236 190.167 233.193C190.136 233.15 190.123 233.087 190.137 232.997L190.207 232.55L189.224 232.396C189.127 232.381 189.064 232.348 189.032 232.305C189.001 232.261 188.989 232.191 189.003 232.102L189.065 231.707C189.079 231.617 189.111 231.561 189.153 231.537L189.162 231.531ZM191.181 231.795L193.177 232.109L191.407 230.358L191.181 231.795Z" fill="#23221F"/>
</g>
<g id="Group_4">
<path id="Vector_10" d="M205.622 126.921C205.622 126.921 205.734 126.893 205.83 126.908L210.635 127.664C210.732 127.679 210.796 127.705 210.829 127.74C210.862 127.776 210.873 127.847 210.859 127.936L210.574 129.746C210.495 130.253 210.275 130.63 209.923 130.88C209.563 131.129 209.121 131.22 208.578 131.134C208.034 131.049 207.64 130.834 207.382 130.488C207.123 130.142 207.03 129.715 207.11 129.209L207.285 128.091L205.691 127.841C205.595 127.825 205.53 127.8 205.498 127.757C205.467 127.714 205.454 127.651 205.467 127.569L205.541 127.099C205.555 127.01 205.587 126.954 205.63 126.922L205.622 126.921ZM207.982 129.292C207.944 129.531 207.991 129.721 208.119 129.879C208.246 130.036 208.444 130.136 208.713 130.178C208.981 130.221 209.2 130.186 209.377 130.077C209.555 129.967 209.659 129.793 209.695 129.562L209.864 128.489L208.151 128.22L207.982 129.292Z" fill="#23221F"/>
<path id="Vector_11" d="M204.907 131.465C204.907 131.465 205.02 131.429 205.117 131.444L209.921 132.2C210.018 132.215 210.083 132.241 210.114 132.284C210.146 132.319 210.158 132.39 210.144 132.479L209.852 134.334C209.775 134.826 209.565 135.19 209.228 135.442C208.883 135.693 208.466 135.772 207.952 135.692C207.565 135.631 207.272 135.501 207.058 135.307C206.845 135.113 206.717 134.856 206.675 134.544C206.558 134.655 206.407 134.739 206.217 134.785L204.524 135.259C204.483 135.276 204.437 135.276 204.393 135.269C204.311 135.256 204.275 135.189 204.293 135.078L204.367 134.608C204.389 134.467 204.42 134.365 204.451 134.316C204.481 134.268 204.557 134.226 204.659 134.204L206.02 133.853C206.187 133.811 206.317 133.763 206.399 133.722C206.482 133.682 206.543 133.63 206.585 133.561C206.627 133.491 206.657 133.396 206.678 133.262L206.77 132.674L204.975 132.391C204.878 132.376 204.814 132.351 204.782 132.308C204.751 132.264 204.738 132.201 204.751 132.119L204.825 131.65C204.839 131.561 204.87 131.505 204.914 131.473L204.907 131.465ZM207.424 133.906C207.39 134.122 207.43 134.304 207.551 134.453C207.666 134.601 207.849 134.698 208.102 134.738C208.355 134.778 208.544 134.739 208.698 134.634C208.852 134.528 208.946 134.367 208.98 134.151L209.156 133.034L207.599 132.789L207.424 133.906Z" fill="#23221F"/>
<path id="Vector_12" d="M204.47 136.525C204.875 136.23 205.378 136.134 205.982 136.229L207.613 136.485C208.224 136.581 208.674 136.828 208.961 137.232C209.256 137.637 209.351 138.148 209.252 138.781C209.152 139.414 208.904 139.879 208.5 140.167C208.094 140.462 207.591 140.558 206.987 140.463L205.356 140.206C204.745 140.11 204.295 139.864 204.008 139.46C203.713 139.055 203.618 138.544 203.717 137.91C203.817 137.277 204.066 136.813 204.47 136.525ZM204.995 137.31C204.788 137.461 204.65 137.706 204.596 138.049C204.542 138.391 204.591 138.666 204.749 138.874C204.907 139.082 205.154 139.213 205.504 139.268L207.15 139.527C207.5 139.582 207.782 139.535 207.989 139.384C208.196 139.233 208.334 138.988 208.388 138.645C208.442 138.303 208.393 138.028 208.235 137.82C208.077 137.612 207.83 137.481 207.48 137.426L205.834 137.167C205.484 137.112 205.202 137.159 204.995 137.31Z" fill="#23221F"/>
<path id="Vector_13" d="M203.411 140.977C203.411 140.977 203.522 140.948 203.619 140.963L208.423 141.719C208.52 141.735 208.585 141.76 208.617 141.796C208.65 141.831 208.662 141.902 208.648 141.991L208.402 143.556C208.301 144.196 208.052 144.661 207.647 144.956C207.242 145.251 206.731 145.346 206.112 145.249L204.749 145.034C204.131 144.937 203.674 144.689 203.379 144.284C203.084 143.879 202.99 143.361 203.091 142.72L203.337 141.156C203.351 141.066 203.383 141.01 203.426 140.979L203.411 140.977ZM203.952 142.871C203.898 143.213 203.947 143.488 204.105 143.696C204.263 143.904 204.517 144.036 204.882 144.093L206.26 144.31C206.618 144.366 206.907 144.32 207.122 144.171C207.336 144.021 207.466 143.775 207.52 143.432L207.66 142.546L204.099 141.986L203.96 142.872L203.952 142.871Z" fill="#23221F"/>
<path id="Vector_14" d="M202.646 145.781C202.682 145.748 202.752 145.736 202.842 145.75L207.698 146.515C207.788 146.529 207.845 146.553 207.869 146.595C207.893 146.637 207.9 146.691 207.888 146.766L207.807 147.28C207.797 147.347 207.773 147.396 207.738 147.429C207.703 147.454 207.64 147.467 207.551 147.453L202.694 146.689C202.605 146.675 202.549 146.643 202.517 146.6C202.493 146.558 202.48 146.495 202.492 146.42L202.57 145.929C202.58 145.862 202.604 145.805 202.647 145.773L202.646 145.781Z" fill="#23221F"/>
<path id="Vector_15" d="M202.628 148.227C203.034 147.932 203.537 147.836 204.141 147.931L205.779 148.189C206.383 148.284 206.832 148.53 207.12 148.934C207.415 149.339 207.51 149.85 207.411 150.483C207.255 151.474 206.739 152.034 205.858 152.155C205.803 152.162 205.765 152.163 205.727 152.157C205.675 152.149 205.64 152.128 205.614 152.101C205.589 152.067 205.574 152.019 205.553 151.954L205.48 151.5C205.467 151.437 205.465 151.399 205.469 151.376C205.48 151.302 205.557 151.253 205.69 151.228C205.932 151.197 206.122 151.105 206.259 150.959C206.397 150.812 206.489 150.613 206.532 150.345C206.642 149.645 206.339 149.239 205.632 149.127L203.978 148.867C203.263 148.755 202.85 149.048 202.74 149.749C202.685 150.099 202.717 150.379 202.83 150.587C202.942 150.796 203.144 150.919 203.419 150.962L203.874 151.034L204.032 150.028C204.045 149.946 204.077 149.89 204.12 149.859C204.163 149.827 204.232 149.823 204.329 149.838L204.679 149.893C204.776 149.909 204.841 149.934 204.872 149.977C204.903 150.02 204.916 150.083 204.903 150.165L204.642 151.826C204.628 151.916 204.596 151.972 204.553 152.003C204.51 152.035 204.441 152.039 204.344 152.024L203.309 151.861C202.966 151.807 202.672 151.684 202.429 151.486C202.185 151.287 202.019 151.032 201.91 150.709C201.807 150.388 201.782 150.018 201.846 149.608C201.946 148.975 202.195 148.51 202.599 148.223L202.628 148.227Z" fill="#23221F"/>
<path id="Vector_16" d="M201.579 152.62C201.579 152.62 201.691 152.584 201.788 152.599L206.593 153.355C206.69 153.37 206.754 153.396 206.786 153.439C206.817 153.482 206.83 153.545 206.816 153.634L206.754 154.029C206.739 154.126 206.712 154.198 206.681 154.247C206.652 154.288 206.593 154.324 206.505 154.349L203.413 155.274L206.064 157.104C206.14 157.154 206.194 157.2 206.209 157.249C206.226 157.289 206.23 157.359 206.215 157.456L206.147 157.888C206.132 157.984 206.1 158.04 206.057 158.072C206.014 158.103 205.944 158.108 205.847 158.092L201.043 157.336C200.946 157.321 200.881 157.296 200.85 157.253C200.819 157.21 200.806 157.146 200.821 157.05L200.885 156.64C200.899 156.551 200.932 156.487 200.974 156.463C201.017 156.432 201.087 156.427 201.184 156.443L203.463 156.801C203.94 156.876 204.432 156.999 204.93 157.177L204.937 157.132C204.463 156.898 204.037 156.647 203.657 156.389L202.482 155.563C202.421 155.515 202.374 155.477 202.35 155.435C202.326 155.393 202.319 155.339 202.331 155.264L202.376 154.974C202.388 154.899 202.411 154.85 202.439 154.816C202.468 154.782 202.524 154.761 202.605 154.735L203.981 154.287C204.214 154.21 204.437 154.153 204.65 154.11C204.862 154.067 205.12 154.032 205.431 153.997L205.439 153.944C204.88 153.956 204.373 153.929 203.911 153.857L201.632 153.498C201.535 153.483 201.47 153.457 201.439 153.414C201.407 153.371 201.394 153.308 201.408 153.219L201.472 152.816C201.486 152.727 201.517 152.671 201.561 152.64L201.579 152.62Z" fill="#23221F"/>
<path id="Vector_17" d="M200.812 157.98C200.812 157.98 200.871 157.997 200.927 158.028L205.524 160.492C205.601 160.535 205.655 160.581 205.678 160.623C205.702 160.665 205.707 160.735 205.694 160.817L205.619 161.293C205.606 161.375 205.58 161.44 205.544 161.48C205.507 161.52 205.449 161.549 205.362 161.566L200.225 162.49C200.178 162.498 200.139 162.5 200.102 162.494C200.02 162.481 199.985 162.414 200.005 162.288L200.075 161.841C200.096 161.707 200.126 161.612 200.165 161.557C200.205 161.502 200.27 161.475 200.363 161.466L201.363 161.318L201.656 159.456L200.75 159.008C200.664 158.972 200.611 158.918 200.59 158.861C200.568 158.804 200.568 158.705 200.588 158.578L200.655 158.154C200.675 158.027 200.729 157.974 200.811 157.987L200.812 157.98ZM202.193 161.189L203.831 160.966C204.203 160.926 204.496 160.911 204.73 160.924L204.737 160.88C204.46 160.798 204.185 160.701 203.893 160.571L202.404 159.849L202.191 161.197L202.193 161.189Z" fill="#23221F"/>
</g>
</g>
<g id="Group_5">
<g id="Group_6">
<path id="Vector_18" d="M33.9196 26.0403C33.9196 26.0403 34.032 26.0045 34.1289 26.0198L34.762 26.1194C35.0823 26.1698 35.3411 26.2716 35.5446 26.4334C35.7482 26.5951 35.8949 26.7785 35.9997 26.9858C36.1044 27.1931 36.1959 27.4365 36.2729 27.7234C36.282 27.763 36.291 27.8026 36.3075 27.8434C36.3165 27.883 36.3318 27.9312 36.3471 27.9794C36.4025 28.2094 36.4564 28.4011 36.5109 28.5395C36.5655 28.6778 36.6447 28.8048 36.7585 28.9066C36.8722 29.0085 37.0216 29.0778 37.2078 29.1071C37.4685 29.1481 37.6802 29.1127 37.8428 29.0009C38.0054 28.8891 38.1092 28.7146 38.1455 28.4837C38.1819 28.2528 38.1579 28.0658 38.0747 27.9153C37.9927 27.7574 37.8464 27.6199 37.637 27.4953C37.5734 27.4624 37.526 27.4244 37.5009 27.3899C37.4758 27.3555 37.4656 27.3233 37.4714 27.2861C37.475 27.2637 37.4882 27.2277 37.52 27.1716L37.7358 26.7704C37.7906 26.6646 37.8595 26.6144 37.9415 26.6272C37.9862 26.6343 38.0297 26.6488 38.0709 26.6781C38.4497 26.8904 38.7136 27.1533 38.8863 27.4629C39.0503 27.7787 39.0948 28.1751 39.0175 28.6667C38.9612 29.0242 38.8387 29.3179 38.6499 29.5477C38.461 29.7775 38.2295 29.9396 37.9551 30.0338C37.6819 30.1206 37.3958 30.1442 37.0904 30.0962C36.7552 30.0435 36.489 29.9405 36.2842 29.7862C36.087 29.633 35.9265 29.4398 35.8116 29.2004C35.6966 28.9609 35.587 28.6384 35.4806 28.2476C35.3894 27.905 35.2929 27.6456 35.1971 27.4779C35.1014 27.3101 34.9429 27.2012 34.7493 27.1707L34.5928 27.1461L34.2424 29.3733C34.2284 29.4627 34.1967 29.5188 34.1536 29.5502C34.1104 29.5816 34.0411 29.5859 33.9442 29.5707L33.5792 29.5133C33.4824 29.498 33.4177 29.4726 33.3863 29.4295C33.3549 29.3864 33.342 29.3233 33.356 29.2339L33.8307 26.2171C33.8447 26.1277 33.8765 26.0716 33.9196 26.0403Z" fill="#23221F"/>
<path id="Vector_19" d="M33.4876 30.8658C33.8657 30.597 34.331 30.5023 34.8896 30.5902L36.8114 30.8926C37.3626 30.9793 37.7763 31.2123 38.0537 31.5842C38.331 31.956 38.416 32.435 38.3257 33.0086C38.2355 33.5821 38.0013 34.0033 37.6306 34.2732C37.2525 34.5419 36.7946 34.6378 36.236 34.5499L34.3142 34.2476C33.7556 34.1597 33.3419 33.9266 33.0645 33.5548C32.7872 33.1829 32.7011 32.7114 32.7913 32.1378C32.8815 31.5643 33.1169 31.1357 33.4876 30.8658ZM34.0129 31.6507C33.8244 31.7813 33.7073 31.9919 33.6628 32.2749C33.6183 32.558 33.665 32.7943 33.8055 32.9691C33.9459 33.1439 34.1639 33.2621 34.4619 33.309L36.3837 33.6114C36.6816 33.6582 36.9242 33.6201 37.1053 33.4883C37.2851 33.3639 37.4022 33.1533 37.4468 32.8703C37.4913 32.5872 37.4457 32.3434 37.3127 32.1698C37.1809 31.9888 36.9617 31.878 36.6637 31.8311L34.742 31.5288C34.444 31.4819 34.2014 31.52 34.0129 31.6507Z" fill="#23221F"/>
<path id="Vector_20" d="M32.5275 34.8818C32.5275 34.8818 32.64 34.8461 32.7368 34.8613L33.3699 34.9609C33.6902 35.0113 33.949 35.1131 34.1526 35.2749C34.3561 35.4367 34.5028 35.6201 34.6076 35.8274C34.7124 36.0347 34.8038 36.2781 34.8808 36.565C34.8899 36.6046 34.8989 36.6442 34.9154 36.6849C34.9244 36.7245 34.9397 36.7727 34.9551 36.8209C35.0104 37.051 35.0643 37.2427 35.1188 37.381C35.1734 37.5194 35.2527 37.6463 35.3664 37.7482C35.4801 37.8501 35.6295 37.9194 35.8157 37.9487C36.0764 37.9897 36.2881 37.9543 36.4507 37.8425C36.6134 37.7306 36.7171 37.5562 36.7535 37.3252C36.7898 37.0943 36.7658 36.9073 36.6826 36.7569C36.6006 36.5989 36.4543 36.4614 36.2449 36.3369C36.1814 36.304 36.1339 36.266 36.1088 36.2315C36.0837 36.197 36.0735 36.1649 36.0793 36.1276C36.0829 36.1053 36.0962 36.0692 36.1279 36.0131L36.3437 35.612C36.3985 35.5061 36.4674 35.4559 36.5494 35.4688C36.5941 35.4758 36.6376 35.4903 36.6788 35.5197C37.0576 35.732 37.3215 35.9949 37.4942 36.3044C37.6582 36.6203 37.7027 37.0166 37.6254 37.5082C37.5691 37.8658 37.4466 38.1595 37.2578 38.3893C37.0689 38.6191 36.8374 38.7811 36.563 38.8753C36.2898 38.9621 36.0037 38.9858 35.6983 38.9377C35.3631 38.885 35.0969 38.7821 34.8921 38.6277C34.6949 38.4746 34.5345 38.2814 34.4195 38.0419C34.3045 37.8025 34.1949 37.4799 34.0885 37.0891C33.9973 36.7466 33.9008 36.4871 33.805 36.3194C33.7093 36.1517 33.5508 36.0428 33.3572 36.0123L33.2008 35.9877L32.8503 38.2149C32.8363 38.3043 32.8046 38.3603 32.7615 38.3917C32.7184 38.4231 32.649 38.4275 32.5521 38.4122L32.1871 38.3548C32.0903 38.3396 32.0256 38.3141 31.9942 38.271C31.9629 38.2279 31.9499 38.1648 31.9639 38.0754L32.4386 35.0587C32.4526 34.9693 32.4844 34.9132 32.5275 34.8818Z" fill="#23221F"/>
<path id="Vector_21" d="M31.4931 41.4585C31.4931 41.4585 31.6056 41.4228 31.7024 41.438L32.6856 41.5927L33.0396 39.3432C33.0536 39.2538 33.0853 39.1977 33.1284 39.1664C33.1716 39.135 33.2409 39.1306 33.3378 39.1459L33.6059 39.1881C33.6879 39.2009 33.7463 39.2178 33.7886 39.2397C33.831 39.2616 33.8773 39.3071 33.9298 39.3611L36.6381 42.039C36.6969 42.1017 36.7409 42.1621 36.755 42.2177C36.7703 42.2659 36.7747 42.3353 36.7606 42.4247L36.6903 42.8716C36.6762 42.961 36.6508 43.0257 36.6002 43.0559C36.5571 43.0873 36.4866 43.0991 36.3898 43.0839L33.3804 42.6104L33.3101 43.0573C33.2961 43.1467 33.2718 43.204 33.2212 43.2342C33.1781 43.2656 33.1087 43.2699 33.0119 43.2547L32.6916 43.2043C32.5948 43.189 32.5301 43.1636 32.4987 43.1205C32.4673 43.0774 32.4543 43.0143 32.4684 42.9249L32.5387 42.478L31.5555 42.3233C31.4586 42.308 31.3951 42.2752 31.3637 42.232C31.3324 42.1889 31.3206 42.1184 31.3346 42.029L31.3968 41.6342C31.4096 41.5523 31.4414 41.4962 31.4845 41.4648L31.4931 41.4585ZM33.5124 41.7228L35.5087 42.0369L33.7386 40.2852L33.5124 41.7228Z" fill="#23221F"/>
</g>
<g id="Group_7">
<path id="Vector_22" d="M8.54603 187.313C8.54603 187.313 8.65851 187.277 8.75534 187.292L9.38849 187.392C9.70879 187.442 9.96757 187.544 10.1711 187.706C10.3672 187.866 10.5213 188.051 10.6261 188.258C10.7309 188.466 10.8224 188.709 10.8994 188.996C10.9084 189.035 10.9175 189.075 10.9339 189.116C10.943 189.155 10.9583 189.204 10.9736 189.252C11.029 189.482 11.0828 189.674 11.1374 189.812C11.192 189.95 11.2712 190.077 11.3849 190.179C11.4987 190.281 11.6481 190.35 11.8343 190.38C12.095 190.421 12.3067 190.385 12.4693 190.273C12.6319 190.162 12.7357 189.987 12.772 189.756C12.8083 189.525 12.7843 189.338 12.7011 189.188C12.6191 189.03 12.4728 188.892 12.2634 188.768C12.1999 188.735 12.1525 188.697 12.1274 188.662C12.1023 188.628 12.092 188.596 12.0979 188.559C12.1014 188.536 12.1147 188.5 12.1464 188.444L12.3622 188.043C12.417 187.937 12.486 187.887 12.5679 187.9C12.6126 187.907 12.6561 187.921 12.6973 187.951C13.0761 188.163 13.3401 188.426 13.5127 188.735C13.6768 189.051 13.7213 189.447 13.644 189.939C13.5877 190.297 13.4651 190.59 13.2763 190.82C13.0875 191.05 12.8559 191.212 12.5816 191.306C12.3072 191.4 12.0222 191.417 11.7168 191.369C11.3816 191.316 11.1154 191.213 10.9107 191.059C10.7134 190.905 10.553 190.712 10.438 190.473C10.323 190.233 10.2135 189.911 10.107 189.52C10.0159 189.177 9.91932 188.918 9.82358 188.75C9.72156 188.574 9.56939 188.474 9.37572 188.443L9.21931 188.419L8.8689 190.646C8.85483 190.735 8.82312 190.791 8.78002 190.823C8.73691 190.854 8.66752 190.858 8.57068 190.843L8.2057 190.786C8.10887 190.77 8.04418 190.745 8.0128 190.702C7.98141 190.659 7.96843 190.596 7.98249 190.506L8.45713 187.49C8.47119 187.4 8.50292 187.344 8.54603 187.313Z" fill="#23221F"/>
<path id="Vector_23" d="M8.11355 192.145C8.49169 191.876 8.95695 191.782 9.51561 191.869L11.4374 192.172C11.9886 192.259 12.4023 192.492 12.6797 192.863C12.957 193.235 13.0419 193.714 12.9517 194.288C12.8615 194.861 12.6273 195.283 12.2566 195.552C11.8784 195.821 11.4206 195.917 10.862 195.829L8.94019 195.527C8.38153 195.439 7.96784 195.206 7.69048 194.834C7.41313 194.462 7.32703 193.991 7.41727 193.417C7.50751 192.844 7.74286 192.415 8.11355 192.145ZM8.63889 192.93C8.4504 193.061 8.33329 193.271 8.28876 193.554C8.24423 193.837 8.29102 194.074 8.43145 194.248C8.57189 194.423 8.7899 194.541 9.08785 194.588L11.0096 194.891C11.3076 194.938 11.5502 194.899 11.7313 194.768C11.9111 194.643 12.0282 194.433 12.0727 194.15C12.1173 193.867 12.0717 193.623 11.9387 193.449C11.8069 193.268 11.5877 193.157 11.2897 193.11L9.36795 192.808C9.07 192.761 8.82737 192.799 8.63889 192.93Z" fill="#23221F"/>
<path id="Vector_24" d="M7.15491 196.154C7.15491 196.154 7.26739 196.119 7.36423 196.134L7.99738 196.233C8.31767 196.284 8.57645 196.386 8.77999 196.547C8.97608 196.708 9.13024 196.893 9.23502 197.1C9.3398 197.307 9.43128 197.551 9.50827 197.837C9.51731 197.877 9.52635 197.917 9.54283 197.957C9.55187 197.997 9.56718 198.045 9.58249 198.093C9.63789 198.323 9.69171 198.515 9.74628 198.653C9.80084 198.792 9.88009 198.919 9.99383 199.021C10.1076 199.123 10.257 199.192 10.4432 199.221C10.7039 199.262 10.9156 199.227 11.0782 199.115C11.2408 199.003 11.3446 198.829 11.3809 198.598C11.4172 198.367 11.3932 198.18 11.31 198.029C11.228 197.871 11.0817 197.734 10.8723 197.609C10.8088 197.576 10.7614 197.538 10.7362 197.504C10.7111 197.469 10.7009 197.437 10.7068 197.4C10.7103 197.378 10.7236 197.342 10.7553 197.286L10.9711 196.884C11.0259 196.779 11.0949 196.728 11.1768 196.741C11.2215 196.748 11.265 196.763 11.3062 196.792C11.685 197.004 11.949 197.267 12.1216 197.577C12.2857 197.893 12.3302 198.289 12.2528 198.781C12.1966 199.138 12.074 199.432 11.8852 199.662C11.6964 199.892 11.4648 200.054 11.1905 200.148C10.9161 200.242 10.6311 200.258 10.3257 200.21C9.99053 200.157 9.7243 200.055 9.51959 199.9C9.32233 199.747 9.16189 199.554 9.04691 199.314C8.93192 199.075 8.82237 198.752 8.71592 198.362C8.62479 198.019 8.52821 197.76 8.43247 197.592C8.33045 197.416 8.17828 197.315 7.98461 197.285L7.82819 197.26L7.47778 199.487C7.46372 199.577 7.43201 199.633 7.38891 199.664C7.3458 199.696 7.2764 199.7 7.17957 199.685L6.81459 199.627C6.71775 199.612 6.65307 199.587 6.62168 199.543C6.5903 199.5 6.57731 199.437 6.59138 199.348L7.06601 196.331C7.08008 196.242 7.11181 196.186 7.15491 196.154Z" fill="#23221F"/>
<path id="Vector_25" d="M6.11907 202.732C6.11907 202.732 6.23155 202.696 6.32838 202.711L7.31162 202.866L7.66555 200.616C7.67961 200.527 7.71132 200.471 7.75442 200.44C7.79753 200.408 7.86693 200.404 7.96376 200.419L8.2319 200.461C8.31384 200.474 8.37226 200.491 8.41461 200.513C8.45696 200.535 8.50324 200.58 8.55579 200.634L11.2641 203.312C11.3229 203.375 11.3668 203.435 11.381 203.491C11.3963 203.539 11.4006 203.608 11.3866 203.698L11.3163 204.145C11.3022 204.234 11.2768 204.299 11.2262 204.329C11.1831 204.36 11.1126 204.372 11.0157 204.357L8.00642 203.884L7.9361 204.331C7.92204 204.42 7.89777 204.477 7.84722 204.507C7.80412 204.539 7.73472 204.543 7.63789 204.528L7.31759 204.477C7.22076 204.462 7.15607 204.437 7.12469 204.394C7.09331 204.351 7.08032 204.287 7.09439 204.198L7.16471 203.751L6.18146 203.596C6.08463 203.581 6.02111 203.548 5.98973 203.505C5.95834 203.462 5.94655 203.392 5.96062 203.302L6.02273 202.907C6.0368 202.818 6.06851 202.762 6.11044 202.738L6.11907 202.732ZM8.13843 202.996L10.1347 203.31L8.36461 201.558L8.13843 202.996Z" fill="#23221F"/>
</g>
<g id="Group_8">
<path id="Vector_26" d="M22.5788 98.122C22.5788 98.122 22.6901 98.0937 22.7869 98.1089L27.5914 98.8648C27.6882 98.8801 27.7529 98.9055 27.7855 98.9412C27.818 98.9768 27.8298 99.0474 27.8158 99.1368L27.531 100.947C27.4513 101.453 27.2316 101.831 26.8793 102.081C26.5196 102.33 26.0779 102.42 25.5341 102.335C24.9903 102.249 24.5966 102.035 24.3381 101.689C24.0796 101.343 23.9865 100.916 24.0661 100.409L24.2419 99.292L22.6479 99.0412C22.5511 99.026 22.4864 99.0005 22.455 98.9574C22.4236 98.9143 22.4106 98.8512 22.4235 98.7693L22.4974 98.3C22.5114 98.2106 22.5431 98.1545 22.5862 98.1232L22.5788 98.122ZM24.9384 100.493C24.9009 100.731 24.9473 100.922 25.0752 101.08C25.203 101.237 25.4011 101.337 25.6692 101.379C25.9374 101.421 26.1565 101.387 26.334 101.278C26.5115 101.168 26.6153 100.994 26.6516 100.763L26.8204 99.69L25.1072 99.4205L24.9384 100.493Z" fill="#23221F"/>
<path id="Vector_27" d="M21.8643 102.666C21.8643 102.666 21.9767 102.63 22.0736 102.645L26.878 103.401C26.9749 103.416 27.0396 103.442 27.0709 103.485C27.1035 103.521 27.1153 103.591 27.1012 103.681L26.8094 105.535C26.7321 106.027 26.5221 106.391 26.1848 106.643C25.8399 106.894 25.4229 106.974 24.9089 106.893C24.5216 106.832 24.2291 106.702 24.0153 106.508C23.8016 106.314 23.674 106.057 23.6315 105.745C23.5148 105.857 23.3643 105.94 23.1738 105.986L21.481 106.46C21.4402 106.477 21.3944 106.477 21.3497 106.47C21.2677 106.457 21.2324 106.391 21.25 106.279L21.3238 105.81C21.3461 105.668 21.3774 105.566 21.408 105.517C21.4385 105.469 21.5137 105.427 21.6164 105.405L22.9769 105.054C23.1439 105.012 23.2736 104.964 23.3563 104.923C23.439 104.883 23.5005 104.832 23.542 104.762C23.5835 104.692 23.6137 104.597 23.6348 104.463L23.7273 103.875L21.9322 103.592C21.8354 103.577 21.7706 103.552 21.7393 103.509C21.7079 103.466 21.6949 103.403 21.7078 103.321L21.7816 102.851C21.7957 102.762 21.8274 102.706 21.8705 102.674L21.8643 102.666ZM24.3732 105.106C24.3393 105.322 24.3793 105.504 24.5009 105.653C24.6151 105.801 24.7982 105.898 25.0515 105.938C25.3047 105.978 25.4941 105.939 25.6481 105.834C25.8021 105.728 25.8961 105.567 25.9301 105.351L26.1058 104.234L24.549 103.989L24.3732 105.106Z" fill="#23221F"/>
<path id="Vector_28" d="M21.4267 107.725C21.8319 107.43 22.3355 107.334 22.9389 107.429L24.5702 107.686C25.181 107.782 25.6307 108.028 25.9183 108.432C26.2059 108.836 26.3084 109.348 26.2088 109.981C26.1092 110.615 25.8606 111.079 25.4566 111.367C25.0526 111.654 24.5477 111.758 23.9443 111.663L22.3131 111.407C21.7023 111.31 21.2525 111.064 20.9649 110.66C20.6774 110.256 20.5748 109.744 20.6744 109.111C20.774 108.478 21.0227 108.013 21.4267 107.725ZM21.952 108.51C21.7451 108.661 21.6073 108.906 21.5533 109.249C21.4994 109.592 21.5478 109.866 21.7059 110.074C21.864 110.283 22.1106 110.413 22.4607 110.468L24.1069 110.727C24.457 110.782 24.7392 110.735 24.9461 110.584C25.153 110.434 25.2909 110.188 25.3448 109.845C25.3987 109.503 25.3503 109.228 25.1922 109.02C25.0341 108.812 24.7875 108.682 24.4374 108.626L22.7912 108.367C22.4411 108.312 22.1589 108.36 21.952 108.51Z" fill="#23221F"/>
<path id="Vector_29" d="M20.3677 112.177C20.3677 112.177 20.479 112.149 20.5759 112.164L25.3803 112.92C25.4772 112.936 25.5419 112.961 25.5744 112.997C25.607 113.032 25.6188 113.103 25.6047 113.192L25.3586 114.757C25.2578 115.397 25.0092 115.862 24.604 116.157C24.1988 116.452 23.6877 116.547 23.0694 116.45L21.7063 116.235C21.0881 116.138 20.6308 115.89 20.3358 115.485C20.0408 115.08 19.9468 114.562 20.0476 113.921L20.2937 112.357C20.3078 112.267 20.3395 112.211 20.3826 112.18L20.3677 112.177ZM20.9093 114.072C20.8554 114.414 20.9038 114.689 21.0619 114.897C21.22 115.105 21.4741 115.237 21.8391 115.294L23.2171 115.511C23.5746 115.567 23.8643 115.521 24.0786 115.372C24.293 115.222 24.4234 114.976 24.4773 114.633L24.6168 113.747L21.0562 113.187L20.9168 114.073L20.9093 114.072Z" fill="#23221F"/>
<path id="Vector_30" d="M19.6043 116.98C19.64 116.948 19.7105 116.936 19.7999 116.95L24.6565 117.714C24.7459 117.728 24.8031 117.753 24.8271 117.794C24.851 117.836 24.8577 117.891 24.846 117.965L24.7651 118.479C24.7546 118.546 24.7315 118.596 24.6958 118.629C24.6613 118.654 24.5982 118.667 24.5088 118.653L19.6522 117.889C19.5628 117.875 19.5068 117.843 19.4754 117.8C19.4514 117.758 19.4385 117.695 19.4502 117.62L19.5275 117.129C19.5381 117.062 19.5624 117.004 19.6055 116.973L19.6043 116.98Z" fill="#23221F"/>
<path id="Vector_31" d="M19.5854 119.428C19.9906 119.133 20.4942 119.037 21.0976 119.132L22.7363 119.389C23.3397 119.484 23.7894 119.731 24.077 120.135C24.3646 120.539 24.4672 121.051 24.3675 121.684C24.2117 122.675 23.6961 123.235 22.8145 123.356C22.7601 123.362 22.7216 123.364 22.6844 123.358C22.6323 123.35 22.5974 123.329 22.5711 123.302C22.546 123.268 22.5306 123.219 22.5102 123.155L22.4367 122.701C22.4237 122.638 22.4221 122.599 22.4256 122.577C22.4374 122.502 22.5138 122.453 22.6474 122.429C22.8889 122.398 23.079 122.306 23.2165 122.159C23.354 122.013 23.4464 121.814 23.4886 121.546C23.5988 120.846 23.2963 120.439 22.5887 120.328L20.935 120.068C20.2199 119.955 19.8073 120.249 19.6972 120.949C19.6421 121.299 19.6744 121.579 19.7866 121.788C19.8988 121.996 20.1008 122.12 20.3764 122.163L20.8308 122.234L20.989 121.229C21.0019 121.147 21.0336 121.091 21.0767 121.059C21.1198 121.028 21.1892 121.024 21.286 121.039L21.6361 121.094C21.7329 121.109 21.7976 121.135 21.829 121.178C21.8604 121.221 21.8734 121.284 21.8605 121.366L21.5991 123.027C21.5851 123.116 21.5534 123.173 21.5103 123.204C21.4671 123.235 21.3978 123.24 21.3009 123.224L20.2655 123.061C19.9229 123.008 19.6292 122.885 19.3857 122.686C19.1421 122.488 18.9762 122.233 18.8666 121.91C18.7645 121.589 18.7388 121.218 18.8033 120.809C18.9029 120.175 19.1516 119.711 19.5556 119.423L19.5854 119.428Z" fill="#23221F"/>
<path id="Vector_32" d="M18.5355 123.82C18.5355 123.82 18.648 123.784 18.7448 123.799L23.5493 124.555C23.6461 124.571 23.7108 124.596 23.7422 124.639C23.7736 124.682 23.7866 124.745 23.7725 124.835L23.7104 125.23C23.6951 125.326 23.6685 125.399 23.638 125.447C23.6086 125.488 23.5494 125.525 23.4616 125.549L20.3696 126.475L23.0206 128.304C23.0966 128.354 23.1504 128.401 23.1657 128.449C23.1822 128.49 23.1865 128.559 23.1713 128.656L23.1033 129.088C23.0881 129.185 23.0564 129.241 23.0133 129.272C22.9702 129.304 22.9008 129.308 22.8039 129.293L17.9995 128.537C17.9026 128.522 17.838 128.496 17.8066 128.453C17.7752 128.41 17.7622 128.347 17.7774 128.25L17.8419 127.84C17.856 127.751 17.8889 127.687 17.9308 127.664C17.9739 127.632 18.0433 127.628 18.1401 127.643L20.4194 128.002C20.8962 128.077 21.3882 128.2 21.8869 128.378L21.894 128.333C21.4195 128.098 20.9933 127.848 20.6141 127.59L19.4387 126.763C19.3776 126.716 19.3301 126.678 19.3062 126.636C19.2822 126.594 19.2756 126.539 19.2873 126.465L19.333 126.174C19.3447 126.1 19.3678 126.05 19.396 126.016C19.4242 125.983 19.481 125.961 19.5614 125.935L20.9371 125.488C21.1707 125.41 21.3933 125.354 21.6061 125.311C21.819 125.268 22.0765 125.232 22.3873 125.197L22.3955 125.145C21.8366 125.156 21.3293 125.13 20.8675 125.057L18.5881 124.698C18.4913 124.683 18.4266 124.658 18.3952 124.615C18.3638 124.572 18.3509 124.508 18.3649 124.419L18.4282 124.017C18.4423 123.927 18.474 123.871 18.5171 123.84L18.5355 123.82Z" fill="#23221F"/>
<path id="Vector_33" d="M17.7692 129.18C17.7692 129.18 17.8276 129.197 17.8837 129.228L22.4805 131.692C22.5578 131.735 22.6115 131.781 22.6355 131.823C22.6594 131.865 22.6637 131.935 22.6508 132.016L22.5758 132.493C22.563 132.575 22.5375 132.64 22.5007 132.68C22.4639 132.72 22.4059 132.749 22.3192 132.766L17.1817 133.69C17.1347 133.698 17.0962 133.7 17.059 133.694C16.9771 133.681 16.9418 133.614 16.9617 133.488L17.032 133.041C17.0531 132.907 17.0832 132.812 17.1224 132.757C17.1616 132.702 17.227 132.675 17.3199 132.666L18.3202 132.518L18.6132 130.656L17.7066 130.208C17.6208 130.172 17.5682 130.118 17.5466 130.061C17.525 130.004 17.5254 129.905 17.5453 129.778L17.6121 129.354C17.632 129.227 17.6861 129.174 17.768 129.187L17.7692 129.18ZM19.1496 132.389L20.7877 132.166C21.1605 132.126 21.4529 132.11 21.6874 132.124L21.6944 132.08C21.4172 131.998 21.1423 131.901 20.8498 131.771L19.3606 131.048L19.1485 132.397L19.1496 132.389Z" fill="#23221F"/>
</g>
</g>
</g>
</g>
</svg>
