<svg width="532" height="739" viewBox="0 0 532 739" fill="none" xmlns="http://www.w3.org/2000/svg">
<g opacity="0.11">
<path d="M532 738.991V738.484H0V738.991H532Z" fill="#F1F0EB"/>
<path d="M532 712.62V712.112H0V712.62H532Z" fill="#F1F0EB"/>
<path d="M532 686.249V685.741H0V686.249H532Z" fill="#F1F0EB"/>
<path d="M532 659.869V659.361H6.10352e-05V659.869H532Z" fill="#F1F0EB"/>
<path d="M532 633.497V632.99H6.10352e-05V633.497H532Z" fill="#F1F0EB"/>
<path d="M532 607.126V606.618H0V607.126H532Z" fill="#F1F0EB"/>
<path d="M532 580.746V580.238H0V580.746H532Z" fill="#F1F0EB"/>
<path d="M532 554.375V553.867H0V554.375H532Z" fill="#F1F0EB"/>
<path d="M532 527.995V527.487H0V527.995H532Z" fill="#F1F0EB"/>
<path d="M532 501.623V501.116H0V501.623H532Z" fill="#F1F0EB"/>
<path d="M532 475.252V474.744H0V475.252H532Z" fill="#F1F0EB"/>
<path d="M532 448.872V448.364H0V448.872H532Z" fill="#F1F0EB"/>
<path d="M532 422.501V421.993H0V422.501H532Z" fill="#F1F0EB"/>
<path d="M531.991 396.121V395.613H-0.00878906V396.121H531.991Z" fill="#F1F0EB"/>
<path d="M532 369.749V369.242H0V369.749H532Z" fill="#F1F0EB"/>
<path d="M532 343.378V342.87H0V343.378H532Z" fill="#F1F0EB"/>
<path d="M532 316.998V316.49H0V316.998H532Z" fill="#F1F0EB"/>
<path d="M532 290.627V290.119H0V290.627H532Z" fill="#F1F0EB"/>
<path d="M532 264.256V263.748H0V264.256H532Z" fill="#F1F0EB"/>
<path d="M532 237.875V237.368H0V237.875H532Z" fill="#F1F0EB"/>
<path d="M532 211.504V210.997H0V211.504H532Z" fill="#F1F0EB"/>
<path d="M532 185.124V184.617H0V185.124H532Z" fill="#F1F0EB"/>
<path d="M532 158.753V158.245H0V158.753H532Z" fill="#F1F0EB"/>
<path d="M532 132.382V131.874H0V132.382H532Z" fill="#F1F0EB"/>
<path d="M532 106.002V105.494H0V106.002H532Z" fill="#F1F0EB"/>
<path d="M532 79.6303V79.1226H0V79.6303H532Z" fill="#F1F0EB"/>
<path d="M531.991 53.259V52.7513H-0.00878906V53.259H531.991Z" fill="#F1F0EB"/>
<path d="M532 26.8789V26.3713H0V26.8789H532Z" fill="#F1F0EB"/>
<path d="M532 0.50766V0H0V0.50766H532Z" fill="#F1F0EB"/>
<path d="M10.5156 738.492H11.0217V0.516431H10.5156V738.492Z" fill="#F1F0EB"/>
<path d="M36.8088 738.492H37.315V0.516431H36.8088V738.492Z" fill="#F1F0EB"/>
<path d="M63.1108 738.492H63.617V0.516431H63.1108V738.492Z" fill="#F1F0EB"/>
<path d="M89.4041 738.492H89.9102V0.516431H89.4041V738.492Z" fill="#F1F0EB"/>
<path d="M115.697 738.492H116.203V0.516431H115.697V738.492Z" fill="#F1F0EB"/>
<path d="M141.999 738.492H142.505V0.516431H141.999V738.492Z" fill="#F1F0EB"/>
<path d="M168.293 738.492H168.799V0.516431H168.293V738.492Z" fill="#F1F0EB"/>
<path d="M194.595 738.492H195.101V0.516431H194.595V738.492Z" fill="#F1F0EB"/>
<path d="M220.879 738.492H221.385V0.516431H220.879V738.492Z" fill="#F1F0EB"/>
<path d="M247.181 738.492H247.687V0.516431H247.181V738.492Z" fill="#F1F0EB"/>
<path d="M273.483 738.492H273.989V0.516431H273.483V738.492Z" fill="#F1F0EB"/>
<path d="M299.776 738.492H300.282V0.516431H299.776V738.492Z" fill="#F1F0EB"/>
<path d="M326.078 738.492H326.584V0.516431H326.078V738.492Z" fill="#F1F0EB"/>
<path d="M352.372 738.492H352.878V0.516431H352.372V738.492Z" fill="#F1F0EB"/>
<path d="M378.665 738.492H379.171V0.516431H378.665V738.492Z" fill="#F1F0EB"/>
<path d="M404.967 738.492H405.473V0.516431H404.967V738.492Z" fill="#F1F0EB"/>
<path d="M431.26 738.492H431.766V0.516431H431.26V738.492Z" fill="#F1F0EB"/>
<path d="M457.553 738.492H458.059V0.516431H457.553V738.492Z" fill="#F1F0EB"/>
<path d="M483.855 738.492H484.361V0.516431H483.855V738.492Z" fill="#F1F0EB"/>
<path d="M510.149 738.492H510.655V0.516431H510.149V738.492Z" fill="#F1F0EB"/>
</g>
</svg>
