<svg width="188" height="153" viewBox="0 0 188 153" fill="none" xmlns="http://www.w3.org/2000/svg">
<path d="M12.0338 52.9849C12.0338 52.9849 11.9016 52.7203 11.9016 52.4558V16.493C11.9016 15.5669 12.0117 14.9275 12.2542 14.5527C12.4966 14.1778 13.0256 13.825 13.8411 13.4502C16.1332 12.3477 18.8441 11.7965 21.9738 11.7965C29.0045 11.7965 32.5309 15.5228 32.5309 22.9756V31.1118C32.5309 38.1897 29.3351 41.7397 22.8994 41.7397C19.9902 41.7397 17.103 40.99 14.2819 39.5347V52.4778C14.2819 52.7424 14.2378 52.9188 14.1496 53.007C14.0615 53.0952 13.9072 53.1393 13.6868 53.1393H12.5187C12.2983 53.1393 12.144 53.0952 12.0558 53.007L12.0338 52.9849ZM17.8744 38.7851C19.351 39.2702 20.9379 39.5127 22.635 39.5127C27.6601 39.5127 30.1506 36.6904 30.1506 31.0457V23.0197C30.1506 19.9989 29.4894 17.7278 28.167 16.2505C26.8446 14.7511 24.7508 14.0014 21.9076 14.0014C20.6514 14.0014 19.4612 14.1337 18.3372 14.3983C17.2132 14.6629 16.2654 14.9496 15.494 15.2803C14.9431 15.5669 14.5904 15.8095 14.4802 16.0079C14.348 16.1843 14.2819 16.5592 14.2819 17.1104V37.2416C15.2075 37.7928 16.3977 38.322 17.8744 38.7851Z" fill="#F2F0EC"/>
<path d="M41.3027 40.8136C41.3027 40.8136 41.1925 40.549 41.1925 40.2844V0.661485C41.1925 0.396891 41.2366 0.220495 41.3027 0.132297C41.3688 0.044099 41.5451 0 41.8096 0H42.9777C43.1981 0 43.3524 0.044099 43.4405 0.132297C43.5287 0.220495 43.5728 0.396891 43.5728 0.661485V13.7148C45.9972 12.4359 48.8403 11.7744 52.0802 11.7744C58.5378 11.7744 61.7557 15.3244 61.7557 22.4023V40.2844C61.7557 40.549 61.7116 40.7254 61.6234 40.8136C61.5353 40.9018 61.381 40.9459 61.1606 40.9459H59.9925C59.7721 40.9459 59.6178 40.9018 59.5296 40.8136C59.4415 40.7254 59.3974 40.549 59.3974 40.2844V22.5787C59.3974 19.7123 58.7803 17.5514 57.5681 16.1402C56.3559 14.7291 54.4384 14.0014 51.8157 14.0014C48.5979 14.0014 45.8649 14.6629 43.5728 15.9859V40.2844C43.5728 40.549 43.5287 40.7254 43.4405 40.8136C43.3524 40.9018 43.1981 40.9459 42.9777 40.9459H41.8096C41.5451 40.9459 41.3908 40.9018 41.3027 40.8136Z" fill="#F2F0EC"/>
<path d="M73.0842 39.1158C71.1447 37.3739 70.1749 35.0146 70.1749 32.0379V21.5203C70.1749 18.5436 71.1447 16.1623 73.0842 14.4204C75.0237 12.6785 77.6244 11.7965 80.9083 11.7965C84.1923 11.7965 86.8591 12.6564 88.7986 14.3983C90.7381 16.1402 91.7079 18.5216 91.7079 21.5424V32.06C91.7079 35.0808 90.7381 37.4621 88.7986 39.1599C86.8591 40.8798 84.2363 41.7397 80.9083 41.7397C77.5803 41.7397 75.0237 40.8798 73.0842 39.1379V39.1158ZM74.8474 37.5062C76.3681 38.8733 78.3958 39.5568 80.9083 39.5568C83.4209 39.5568 85.4926 38.8953 87.0134 37.5282C88.5341 36.1832 89.3055 34.3531 89.3055 32.0159V21.4542C89.3055 19.139 88.5341 17.3089 87.0134 15.9859C85.4926 14.6629 83.4429 14.0014 80.9083 14.0014C78.3737 14.0014 76.3901 14.685 74.8474 16.03C73.3266 17.375 72.5552 19.1831 72.5552 21.4762V32.0379C72.5552 34.3311 73.3266 36.1612 74.8474 37.5062Z" fill="#F2F0EC"/>
<path d="M105.791 40.086C104.469 39.5127 103.499 38.4984 102.882 37.0211C102.265 35.5438 101.978 33.3829 101.978 30.5386V14.7732H96.9534C96.733 14.7732 96.5787 14.7291 96.4905 14.6629C96.4024 14.5968 96.3583 14.4204 96.3583 14.1558V13.2077C96.3583 12.8108 96.5566 12.5903 96.9754 12.5903H102V6.57076C102 6.17386 102.199 5.95337 102.618 5.95337H103.786C104.05 5.95337 104.204 5.99747 104.293 6.08567C104.359 6.17386 104.403 6.32821 104.403 6.54871V12.5682H111.808C112.205 12.5682 112.425 12.7667 112.425 13.1856V14.1337C112.425 14.3983 112.381 14.5527 112.293 14.6409C112.205 14.7291 112.051 14.7511 111.83 14.7511H104.425V30.4063C104.425 32.7656 104.645 34.5295 105.086 35.6981C105.527 36.8668 106.254 37.6385 107.268 38.0574C108.282 38.4543 109.759 38.6748 111.72 38.6748H111.896C112.227 38.6748 112.403 38.8512 112.403 39.2261V40.2844C112.403 40.5711 112.337 40.7695 112.205 40.8357C112.073 40.9018 111.83 40.9459 111.456 40.9459C109.053 40.9459 107.202 40.6593 105.88 40.086H105.791Z" fill="#F2F0EC"/>
<path d="M120.426 39.1158C118.486 37.3739 117.517 35.0146 117.517 32.0379V21.5203C117.517 18.5436 118.486 16.1623 120.426 14.4204C122.365 12.6785 124.966 11.7965 128.25 11.7965C131.534 11.7965 134.201 12.6564 136.14 14.3983C138.08 16.1402 139.049 18.5216 139.049 21.5424V32.06C139.049 35.0808 138.08 37.4621 136.14 39.1599C134.201 40.8798 131.578 41.7397 128.25 41.7397C124.922 41.7397 122.365 40.8798 120.426 39.1379V39.1158ZM122.189 37.5062C123.71 38.8733 125.737 39.5568 128.25 39.5568C130.762 39.5568 132.834 38.8953 134.355 37.5282C135.876 36.1832 136.647 34.3531 136.647 32.0159V21.4542C136.647 19.139 135.876 17.3089 134.355 15.9859C132.834 14.6629 130.785 14.0014 128.25 14.0014C125.715 14.0014 123.732 14.685 122.189 16.03C120.668 17.375 119.897 19.1831 119.897 21.4762V32.0379C119.897 34.3311 120.668 36.1612 122.189 37.5062Z" fill="#F2F0EC"/>
<path d="M10.6453 78.9813C10.513 78.8931 10.4028 78.7167 10.2926 78.4521L0.110199 51.3973L0 50.8902C0 50.6697 0.176319 50.5594 0.550996 50.5594H1.54279C1.87339 50.5594 2.09379 50.6035 2.22603 50.6697C2.35826 50.7358 2.44642 50.9343 2.53458 51.2209L10.2706 71.9034C10.5571 72.7192 11.064 74.1965 11.7693 76.3353H11.8354L12.3423 74.7918C12.4966 74.395 12.6288 73.954 12.7831 73.4689C12.9374 72.9838 13.0917 72.4987 13.29 71.9695L21.026 51.1768C21.0921 50.9122 21.2023 50.7579 21.3125 50.6697C21.4227 50.6035 21.6652 50.5594 22.0399 50.5594H22.9876C23.2741 50.5594 23.4724 50.6256 23.5386 50.7358C23.6047 50.8461 23.6047 51.0445 23.4724 51.3532L13.1798 78.4741C13.1137 78.7387 13.0035 78.9151 12.8713 79.0033C12.739 79.0915 12.5407 79.1356 12.2982 79.1356H11.1962C10.9758 79.1356 10.7995 79.0915 10.6673 79.0033L10.6453 78.9813Z" fill="#F2F0EC"/>
<path d="M29.5775 45.2676C29.5775 44.7605 29.6656 44.3856 29.864 44.1872C30.0403 43.9887 30.3709 43.8785 30.8558 43.8785H31.6272C32.1121 43.8785 32.4206 43.9887 32.5969 44.1872C32.7733 44.3856 32.8394 44.7384 32.8394 45.2676V45.7086C32.8394 46.2157 32.7512 46.5906 32.5969 46.789C32.4206 46.9875 32.1121 47.0977 31.6272 47.0977H30.8558C30.3709 47.0977 30.0403 47.0095 29.864 46.8111C29.6877 46.6126 29.5775 46.2598 29.5775 45.7086V45.2676ZM30.1726 78.7608C30.1726 78.7608 30.0403 78.4962 30.0403 78.2316V51.1769C30.0403 50.9564 30.0844 50.802 30.1726 50.7138C30.2607 50.6256 30.437 50.5815 30.7015 50.5815H31.8035C32.068 50.5815 32.2223 50.6256 32.3104 50.7138C32.3765 50.802 32.4206 50.9564 32.4206 51.1769V78.2316C32.4206 78.4962 32.3765 78.6726 32.3104 78.7608C32.2443 78.849 32.068 78.8931 31.8035 78.8931H30.7015C30.437 78.8931 30.2607 78.849 30.1726 78.7608Z" fill="#F2F0EC"/>
<path d="M41.0382 68.4857V60.4156C41.0382 56.9538 41.8978 54.3079 43.6389 52.4778C45.3801 50.6477 47.8926 49.7436 51.2206 49.7436C53.9756 49.7436 56.7085 50.4492 59.3974 51.8383V38.6086C59.3974 38.344 59.4415 38.1676 59.5296 38.0794C59.6178 37.9912 59.7721 37.9471 59.9925 37.9471H61.1606C61.4251 37.9471 61.5793 37.9912 61.6675 38.0794C61.7336 38.1676 61.7777 38.344 61.7777 38.6086V75.0124C61.7777 75.9384 61.6675 76.5779 61.4251 76.9527C61.1826 77.3276 60.6537 77.7024 59.8602 78.0552C57.5681 79.1356 54.8572 79.6648 51.7275 79.6648C44.6087 79.6648 41.0602 75.9384 41.0602 68.4857H41.0382ZM45.4241 75.2108C46.8126 76.7102 48.9064 77.4599 51.7496 77.4599C53.0499 77.4599 54.2401 77.3496 55.3641 77.1071C56.4881 76.8645 57.4138 76.5558 58.1632 76.203C58.7142 75.9384 59.0448 75.7179 59.177 75.5195C59.3092 75.321 59.3754 74.9462 59.3754 74.395V54.1535C58.5158 53.6464 57.4138 53.1613 56.0253 52.7203C54.6368 52.2793 53.094 52.0588 51.3969 52.0588C48.7742 52.0588 46.7906 52.7644 45.4241 54.1976C44.0577 55.6088 43.3744 57.7255 43.3744 60.5258V68.4857C43.3304 71.5065 44.0136 73.7776 45.4021 75.2549L45.4241 75.2108Z" fill="#F2F0EC"/>
<path d="M72.7315 76.7542C70.9684 74.8139 70.0868 72.1459 70.0868 68.7503V61.2755C70.0868 57.6594 71.0124 54.837 72.8858 52.7864C74.7372 50.7358 77.426 49.7216 80.9304 49.7216C84.4347 49.7216 87.0795 50.7579 88.8868 52.8305C90.694 54.9032 91.5977 57.6814 91.5977 61.1873V64.0096C91.5977 64.8255 91.2009 65.2224 90.4296 65.2224H72.4671V68.9928C72.4671 71.6829 73.1503 73.7996 74.5388 75.321C75.9273 76.8424 77.955 77.6142 80.6439 77.6142C82.8478 77.6142 84.6331 77.1511 85.9555 76.2251C87.2779 75.299 88.3798 73.954 89.2174 72.19C89.3716 71.9695 89.5039 71.8372 89.6361 71.7931C89.7684 71.749 89.9226 71.7931 90.099 71.9034L90.8703 72.3443C91.3111 72.5648 91.4213 72.8956 91.201 73.3366C89.1292 77.548 85.6249 79.6427 80.6439 79.6427C77.1395 79.6427 74.4947 78.6725 72.7315 76.7322V76.7542ZM89.2614 63.282V61.0771C89.2614 58.1665 88.5562 55.8954 87.1677 54.2638C85.7571 52.6321 83.6854 51.8383 80.9083 51.8383C78.1313 51.8383 75.9934 52.6541 74.5829 54.3079C73.1723 55.9395 72.445 58.2106 72.445 61.0771V63.282H89.2614Z" fill="#F2F0EC"/>
<path d="M101.736 77.063C99.7965 75.3211 98.8268 72.9618 98.8268 69.9851V59.4675C98.8268 56.4688 99.7965 54.1095 101.736 52.3675C103.676 50.6256 106.276 49.7437 109.56 49.7437C112.844 49.7437 115.511 50.6036 117.45 52.3455C119.39 54.0874 120.36 56.4688 120.36 59.4895V70.0071C120.36 73.0279 119.39 75.4093 117.45 77.1071C115.511 78.8269 112.888 79.6869 109.56 79.6869C106.232 79.6869 103.676 78.8269 101.736 77.085V77.063ZM103.499 75.4534C105.02 76.8204 107.048 77.504 109.56 77.504C112.073 77.504 114.144 76.8425 115.665 75.4754C117.186 74.1304 117.957 72.3003 117.957 69.963V59.4013C117.957 57.0861 117.186 55.256 115.665 53.9331C114.144 52.6101 112.095 51.9486 109.56 51.9486C107.026 51.9486 105.042 52.6321 103.499 53.9772C101.978 55.3222 101.207 57.1302 101.207 59.4234V69.9851C101.207 72.2782 101.978 74.0863 103.499 75.4534Z" fill="#F2F0EC"/>
<path d="M41.0162 105.419V97.3486C41.0162 93.8868 41.8758 91.2409 43.6169 89.4107C45.3581 87.5806 47.8706 86.6766 51.1986 86.6766C53.9536 86.6766 56.6865 87.3822 59.3754 88.7713V75.5416C59.3754 75.277 59.4195 75.1006 59.5076 75.0124C59.5958 74.9242 59.7501 74.8801 59.9705 74.8801H61.1386C61.4031 74.8801 61.5573 74.9242 61.6455 75.0124C61.7116 75.1006 61.7557 75.277 61.7557 75.5416V111.945C61.7557 112.871 61.6455 113.511 61.4031 113.886C61.1606 114.261 60.6317 114.635 59.8382 114.988C57.5461 116.069 54.8352 116.598 51.7055 116.598C44.5867 116.598 41.0382 112.871 41.0382 105.419H41.0162ZM45.4242 112.144C46.8127 113.643 48.9065 114.393 51.7496 114.393C53.05 114.393 54.2401 114.283 55.3642 114.04C56.4882 113.797 57.4139 113.489 58.1632 113.136C58.7142 112.871 59.0448 112.651 59.177 112.452C59.3093 112.254 59.3754 111.879 59.3754 111.328V91.0865C58.5159 90.5794 57.4139 90.0943 56.0253 89.6533C54.6368 89.2123 53.094 88.9918 51.397 88.9918C48.7742 88.9918 46.7906 89.6974 45.4242 91.1306C44.0577 92.5418 43.3745 94.6585 43.3745 97.4588V105.419C43.3304 108.439 44.0136 110.711 45.4021 112.188L45.4242 112.144Z" fill="#F2F0EC"/>
<path d="M72.7096 113.687C70.9464 111.747 70.0648 109.079 70.0648 105.683V98.2085C70.0648 94.5924 70.9904 91.7701 72.8638 89.7195C74.7152 87.6689 77.404 86.6546 80.9084 86.6546C84.4127 86.6546 87.0575 87.6909 88.8648 89.7636C90.672 91.8362 91.5757 94.6145 91.5757 98.1203V100.943C91.5757 101.759 91.179 102.155 90.4076 102.155H72.4451V105.926C72.4451 108.616 73.1283 110.733 74.5168 112.254C75.9053 113.775 77.933 114.547 80.6219 114.547C82.8259 114.547 84.6111 114.084 85.9335 113.158C87.2559 112.232 88.3579 110.887 89.1954 109.123C89.3496 108.903 89.4819 108.77 89.6141 108.726C89.7464 108.682 89.9006 108.726 90.077 108.836L90.8484 109.277C91.2892 109.498 91.3994 109.829 91.179 110.27C89.1072 114.481 85.6029 116.576 80.6219 116.576C77.1175 116.576 74.4727 115.606 72.7096 113.665V113.687ZM89.2395 100.215V98.0101C89.2395 95.0996 88.5342 92.8285 87.1457 91.1968C85.7572 89.5651 83.6634 88.7714 80.8863 88.7714C78.1093 88.7714 75.9715 89.5872 74.5609 91.2409C73.1504 92.8726 72.423 95.1437 72.423 98.0101V100.215H89.2395Z" fill="#F2F0EC"/>
<path d="M101.824 114.988C100.083 113.93 98.7827 112.144 97.9893 109.674L97.8791 109.233C97.8791 109.013 98.0334 108.858 98.3199 108.792L99.3778 108.462C99.5982 108.395 99.7304 108.351 99.7745 108.351C99.9508 108.351 100.105 108.528 100.215 108.858C100.876 110.843 101.912 112.298 103.301 113.18C104.689 114.062 106.453 114.503 108.546 114.503C111.081 114.503 112.998 113.996 114.277 112.96C115.555 111.923 116.194 110.49 116.194 108.638C116.194 107.161 115.886 106.036 115.291 105.242C114.673 104.448 113.836 103.875 112.778 103.544C111.698 103.214 110.332 102.949 108.635 102.773C106.431 102.552 104.645 102.244 103.301 101.825C101.956 101.428 100.832 100.656 99.9288 99.5315C99.0251 98.4069 98.5843 96.7753 98.5843 94.6365C98.5843 92.1228 99.4219 90.1825 101.097 88.7934C102.772 87.4042 105.152 86.7207 108.26 86.7207C110.993 86.7207 113.131 87.2278 114.695 88.2421C116.26 89.2564 117.406 90.7337 118.09 92.6961C118.156 92.8064 118.2 92.9828 118.2 93.2033C118.2 93.3796 118.09 93.534 117.869 93.6442L116.988 93.975L116.547 94.0852C116.437 94.0852 116.348 94.0411 116.304 93.975C116.238 93.9088 116.194 93.7986 116.106 93.6883C115.511 92.1008 114.629 90.8881 113.417 90.0722C112.227 89.2343 110.486 88.8375 108.238 88.8375C105.88 88.8375 104.072 89.3446 102.816 90.3589C101.56 91.3731 100.943 92.8064 100.943 94.6585C100.943 96.2902 101.273 97.5029 101.956 98.3187C102.64 99.1346 103.499 99.6858 104.557 99.9504C105.615 100.215 107.114 100.48 109.053 100.7C112.117 100.987 114.453 101.692 116.106 102.773C117.737 103.853 118.574 105.816 118.574 108.616C118.574 111.129 117.737 113.092 116.062 114.503C114.387 115.914 111.896 116.642 108.568 116.642C105.835 116.642 103.609 116.113 101.846 115.032L101.824 114.988Z" fill="#F2F0EC"/>
<path d="M126.024 78.4301C126.024 77.923 126.112 77.5482 126.31 77.3497C126.487 77.1513 126.817 77.041 127.302 77.041H128.074C128.559 77.041 128.867 77.1513 129.043 77.3497C129.22 77.5482 129.286 77.923 129.286 78.4301V78.8711C129.286 79.4003 129.198 79.7531 129.043 79.9515C128.867 80.15 128.559 80.2602 128.074 80.2602H127.302C126.817 80.2602 126.487 80.172 126.31 79.9736C126.134 79.7972 126.024 79.4224 126.024 78.8711V78.4301ZM126.597 115.694C126.597 115.694 126.465 115.429 126.465 115.165V88.1099C126.465 87.8894 126.509 87.735 126.597 87.6468C126.685 87.5586 126.861 87.5145 127.126 87.5145H128.228C128.492 87.5145 128.647 87.5586 128.735 87.6468C128.801 87.735 128.845 87.8894 128.845 88.1099V115.165C128.845 115.429 128.801 115.606 128.735 115.694C128.669 115.782 128.492 115.826 128.228 115.826H127.126C126.861 115.826 126.685 115.782 126.597 115.694Z" fill="#F2F0EC"/>
<path d="M141.782 128.152C140.262 127.049 139.049 125.506 138.124 123.565C137.97 123.279 137.903 123.102 137.903 123.058C137.903 122.882 138.036 122.706 138.3 122.551L139.182 122.11C139.292 122.044 139.446 122 139.623 122C139.843 122 140.019 122.132 140.174 122.397C140.945 124.095 141.915 125.396 143.039 126.278C144.163 127.16 145.75 127.601 147.733 127.601C150.488 127.601 152.516 126.785 153.794 125.131C155.072 123.499 155.712 121.118 155.712 118.031V114.327C153.287 115.584 150.4 116.201 147.094 116.201C140.68 116.201 137.463 112.673 137.463 105.639V97.8337C137.463 90.381 140.989 86.6546 148.02 86.6546C151.149 86.6546 153.86 87.1838 156.152 88.2642C156.924 88.6391 157.453 89.0139 157.695 89.4328C157.938 89.8518 158.092 90.4912 158.092 91.3732V117.987C158.092 125.881 154.654 129.828 147.755 129.828C145.287 129.828 143.303 129.276 141.782 128.174V128.152ZM141.65 111.923C142.84 113.334 144.758 114.062 147.381 114.062C150.665 114.062 153.442 113.423 155.734 112.122V91.9906C155.734 91.4393 155.668 91.0645 155.535 90.8661C155.403 90.6676 155.072 90.4251 154.521 90.1825C153.794 89.8077 152.868 89.499 151.767 89.2785C150.665 89.036 149.452 88.9257 148.108 88.9257C145.265 88.9257 143.193 89.6754 141.849 91.1307C140.526 92.608 139.865 94.8791 139.865 97.9439V105.573C139.865 108.417 140.46 110.534 141.672 111.967L141.65 111.923Z" fill="#F2F0EC"/>
<path d="M167.525 115.694C167.525 115.694 167.393 115.429 167.393 115.165V91.5496C167.393 90.7117 167.525 90.0723 167.789 89.6313C168.054 89.1903 168.539 88.8375 169.288 88.5067C171.977 87.294 174.997 86.6766 178.369 86.6766C181.741 86.6766 184.077 87.6027 185.642 89.4549C187.207 91.307 188 93.9309 188 97.3706V115.187C188 115.451 187.956 115.628 187.89 115.716C187.824 115.804 187.647 115.848 187.383 115.848H186.215C185.994 115.848 185.84 115.804 185.752 115.716C185.664 115.628 185.62 115.451 185.62 115.187V97.4809C185.62 91.7701 183.085 88.9036 178.038 88.9036C176.561 88.9036 175.195 89.058 173.917 89.3446C172.638 89.6313 171.624 89.9841 170.853 90.403C170.412 90.6235 170.126 90.866 169.993 91.1306C169.861 91.3952 169.795 91.748 169.795 92.189V115.209C169.795 115.473 169.751 115.65 169.663 115.738C169.575 115.826 169.42 115.87 169.2 115.87H168.032C167.812 115.87 167.657 115.826 167.569 115.738L167.525 115.694Z" fill="#F2F0EC"/>
<path d="M41.0382 141.734V133.664C41.0382 130.202 41.8978 127.556 43.6389 125.726C45.3801 123.896 47.8926 122.992 51.2206 122.992C53.9756 122.992 56.7085 123.698 59.3974 125.087V111.857C59.3974 111.593 59.4415 111.416 59.5296 111.328C59.6178 111.24 59.7721 111.196 59.9925 111.196H61.1606C61.4251 111.196 61.5793 111.24 61.6675 111.328C61.7336 111.416 61.7777 111.593 61.7777 111.857V148.261C61.7777 149.187 61.6675 149.826 61.4251 150.201C61.1826 150.576 60.6537 150.951 59.8602 151.304C57.5681 152.384 54.8572 152.913 51.7275 152.913C44.6087 152.913 41.0602 149.187 41.0602 141.734H41.0382ZM45.4241 148.459C46.8126 149.959 48.9064 150.708 51.7496 150.708C53.0499 150.708 54.2401 150.598 55.3641 150.356C56.4881 150.113 57.4138 149.804 58.1632 149.451C58.7142 149.187 59.0448 148.966 59.177 148.768C59.3092 148.57 59.3754 148.195 59.3754 147.643V127.402C58.5158 126.895 57.4138 126.41 56.0253 125.969C54.6368 125.528 53.094 125.307 51.3969 125.307C48.7742 125.307 46.7906 126.013 45.4241 127.446C44.0577 128.857 43.3744 130.974 43.3744 133.774V141.734C43.3304 144.755 44.0136 147.026 45.4021 148.503L45.4241 148.459Z" fill="#F2F0EC"/>
<path d="M72.7315 150.003C70.9683 148.062 70.0867 145.394 70.0867 141.999V134.524C70.0867 130.908 71.0124 128.086 72.8858 126.035C74.7372 123.984 77.426 122.97 80.9304 122.97C84.4347 122.97 87.0795 124.006 88.8868 126.079C90.694 128.152 91.5977 130.93 91.5977 134.436V137.258C91.5977 138.074 91.2009 138.471 90.4295 138.471H72.4671V142.241C72.4671 144.931 73.1503 147.048 74.5388 148.57C75.9273 150.091 77.955 150.863 80.6438 150.863C82.8478 150.863 84.6331 150.4 85.9554 149.474C87.2778 148.548 88.3798 147.202 89.2173 145.439C89.3716 145.218 89.5039 145.086 89.6361 145.042C89.7683 144.998 89.9226 145.042 90.0989 145.152L90.8703 145.593C91.3111 145.813 91.4213 146.144 91.2009 146.585C89.1292 150.797 85.6248 152.891 80.6438 152.891C77.1395 152.891 74.4947 151.921 72.7315 149.981V150.003ZM89.2614 136.531V134.326C89.2614 131.415 88.5561 129.144 87.1676 127.512C85.7571 125.881 83.6853 125.087 80.9083 125.087C78.1313 125.087 75.9934 125.903 74.5829 127.556C73.1723 129.188 72.445 131.459 72.445 134.326V136.531H89.2614Z" fill="#F2F0EC"/>
<path d="M106.651 152.23C106.519 152.142 106.408 151.965 106.298 151.701L96.1158 124.646L96.0056 124.139C96.0056 123.918 96.1819 123.808 96.5566 123.808H97.5484C97.879 123.808 98.0994 123.852 98.2317 123.918C98.3639 123.984 98.452 124.183 98.5402 124.469L106.276 145.152C106.563 145.968 107.07 147.445 107.775 149.584H107.841L108.348 148.04C108.502 147.643 108.634 147.202 108.789 146.717C108.943 146.232 109.097 145.747 109.296 145.218L117.032 124.425C117.098 124.161 117.208 124.006 117.318 123.918C117.428 123.852 117.671 123.808 118.045 123.808H118.993C119.28 123.808 119.478 123.874 119.544 123.984C119.61 124.095 119.61 124.293 119.478 124.602L109.185 151.723C109.119 151.987 109.009 152.164 108.877 152.252C108.745 152.34 108.546 152.384 108.304 152.384H107.202C106.981 152.384 106.805 152.34 106.673 152.252L106.651 152.23Z" fill="#F2F0EC"/>
</svg>
