<svg width="164" height="31" viewBox="0 0 164 31" fill="none" xmlns="http://www.w3.org/2000/svg">
<g id="Prodigma.org" clip-path="url(#clip0_401_533)">
<path id="Vector" d="M164 0H0V31H164V0Z" fill="#D33D25"/>
<g id="Group">
<path id="Vector_2" d="M31.4294 11.7844C32.3512 11.4282 33.4432 11.2402 34.7256 11.2402C37.3406 11.2402 38.643 12.4771 38.643 14.9606V17.6421C38.643 20.1059 37.3506 21.3427 34.7757 21.3427C33.9542 21.3427 33.0124 21.1349 31.9504 20.7094V24.8454C31.9504 25.073 31.8402 25.1818 31.6097 25.1818H31.0086C30.7782 25.1818 30.668 25.073 30.668 24.8454V12.8234C30.668 12.5265 30.7181 12.3089 30.8183 12.1703C30.9184 12.0318 31.1188 11.9032 31.4194 11.7844H31.4294ZM37.3807 15.0101C37.3807 13.2785 36.4489 12.4078 34.5754 12.4078C33.7338 12.4078 32.9823 12.5265 32.3111 12.764C32.1508 12.8234 32.0506 12.8926 32.0105 12.952C31.9704 13.0114 31.9504 13.1202 31.9504 13.2686V19.5814C32.8721 20.0168 33.7738 20.2345 34.6856 20.2345C36.479 20.2345 37.3807 19.3638 37.3807 17.6322V15.0299V15.0101Z" fill="#F1F0EB"/>
<path id="Vector_3" d="M44.9149 11.2502H45.496C45.7264 11.2502 45.8367 11.3591 45.8367 11.5867V12.0715C45.8367 12.2991 45.7264 12.4079 45.496 12.4079H44.8748C43.9331 12.4079 43.1015 12.5366 42.3901 12.7938C42.1797 12.8829 42.0695 13.0412 42.0695 13.2787V20.759C42.0695 20.9866 41.9593 21.0954 41.7289 21.0954H41.1278C40.8973 21.0954 40.7871 20.9866 40.7871 20.759V12.873C40.7871 12.586 40.8372 12.3782 40.9374 12.2298C41.0376 12.0913 41.2279 11.9528 41.4985 11.834C42.4503 11.4778 43.5924 11.2799 44.9049 11.2601L44.9149 11.2502Z" fill="#F1F0EB"/>
<path id="Vector_4" d="M46.5181 14.6738C46.5181 13.6052 46.8888 12.774 47.6201 12.1606C48.3515 11.557 49.3634 11.2502 50.6459 11.2502C51.9283 11.2502 52.9602 11.557 53.7016 12.1606C54.443 12.7641 54.8137 13.6052 54.8137 14.6738V17.9489C54.8137 19.0176 54.443 19.8487 53.7016 20.4523C52.9602 21.0559 51.9383 21.3527 50.6459 21.3527C49.3534 21.3527 48.3515 21.046 47.6201 20.4424C46.8888 19.8388 46.5181 19.0077 46.5181 17.9489V14.6738ZM53.5313 14.6738C53.5313 13.9713 53.2708 13.4073 52.7599 13.0016C52.2489 12.5959 51.5376 12.3881 50.6459 12.3881C49.7542 12.3881 49.0729 12.5959 48.5519 13.0016C48.0409 13.4073 47.7805 13.9713 47.7805 14.6738V17.9489C47.7805 18.6515 48.0409 19.2155 48.5619 19.6112C49.0829 20.0169 49.7742 20.2148 50.6459 20.2148C51.5175 20.2148 52.2389 20.0169 52.7599 19.6112C53.2708 19.2056 53.5313 18.6515 53.5313 17.9489V14.6738Z" fill="#F1F0EB"/>
<path id="Vector_5" d="M56.6772 14.9706C56.6772 13.7832 56.9878 12.863 57.599 12.2199C58.2101 11.5767 59.1419 11.2502 60.3843 11.2502C61.316 11.2502 62.3079 11.4283 63.3599 11.7944V7.65844C63.3599 7.43086 63.4701 7.32202 63.7005 7.32202H64.2816C64.4119 7.32202 64.492 7.35171 64.5421 7.40118C64.5922 7.45065 64.6223 7.5397 64.6223 7.65844V19.7893C64.6223 20.0861 64.5722 20.2939 64.482 20.4226C64.3918 20.5512 64.1914 20.6699 63.8909 20.7986C62.9992 21.1746 61.9172 21.3527 60.6347 21.3527C57.9997 21.3527 56.6772 20.1158 56.6772 17.6323V14.9706ZM63.3599 12.962C62.388 12.586 61.4763 12.4079 60.6047 12.4079C58.8213 12.4079 57.9296 13.2786 57.9296 15.0102V17.6125C57.9296 19.3539 58.8614 20.2148 60.7349 20.2148C61.5765 20.2148 62.3279 20.096 62.9992 19.8586C63.1495 19.7992 63.2497 19.7398 63.2897 19.6805C63.3298 19.6211 63.3599 19.5221 63.3599 19.3737V12.9521V12.962Z" fill="#F1F0EB"/>
<path id="Vector_6" d="M67.7881 8.10376C68.0486 8.10376 68.2389 8.15323 68.3391 8.25218C68.4393 8.35113 68.4894 8.52923 68.4894 8.78649V8.91512C68.4894 9.17238 68.4393 9.36038 68.3391 9.45933C68.2389 9.55828 68.0586 9.60775 67.7881 9.60775H67.6779C67.4174 9.60775 67.227 9.55828 67.1268 9.45933C67.0267 9.36038 66.9766 9.18228 66.9766 8.91512V8.78649C66.9766 8.52923 67.0267 8.35113 67.1268 8.25218C67.227 8.15323 67.4074 8.10376 67.6779 8.10376H67.7881ZM68.0386 11.5273C68.269 11.5273 68.3792 11.6362 68.3792 11.8637V20.759C68.3792 20.9866 68.269 21.0955 68.0386 21.0955H67.4374C67.207 21.0955 67.0968 20.9866 67.0968 20.759V11.8637C67.0968 11.6362 67.207 11.5273 67.4374 11.5273H68.0386Z" fill="#F1F0EB"/>
<path id="Vector_7" d="M70.5435 15.0596C70.5435 12.5166 71.896 11.2402 74.6111 11.2402C75.8335 11.2402 76.8955 11.4282 77.7972 11.7943C78.0977 11.9329 78.2981 12.0615 78.3783 12.1802C78.4684 12.299 78.5085 12.5166 78.5085 12.8234V21.6593C78.5085 24.3408 77.186 25.6766 74.531 25.6766C72.7677 25.6766 71.5253 25.0136 70.8039 23.6877C70.6436 23.4503 70.6837 23.2623 70.9342 23.1336L71.345 22.9258C71.5754 22.7972 71.7557 22.8467 71.886 23.0545C72.427 24.0439 73.2886 24.5387 74.4909 24.5387C76.3244 24.5387 77.2461 23.5987 77.2461 21.7088V20.5511C76.2242 20.9271 75.2323 21.1052 74.2705 21.1052C71.7858 21.1052 70.5435 19.8981 70.5435 17.4739V15.0398V15.0596ZM76.8955 12.7541C76.2542 12.5166 75.5229 12.3979 74.6913 12.3979C72.7777 12.3979 71.8259 13.2884 71.8259 15.0794V17.464C71.8259 19.1362 72.6875 19.9772 74.4208 19.9772C75.3425 19.9772 76.2843 19.7991 77.2461 19.4429V13.2489C77.2461 13.1004 77.2261 13.0015 77.186 12.9421C77.1459 12.8828 77.0457 12.8234 76.8854 12.764L76.8955 12.7541Z" fill="#F1F0EB"/>
<path id="Vector_8" d="M87.0845 12.0517C88.2768 11.5174 89.4189 11.2502 90.4909 11.2502C92.7853 11.2502 93.9375 12.4277 93.9375 14.7826V20.759C93.9375 20.8877 93.9174 20.9668 93.8673 21.0163C93.8273 21.0658 93.7271 21.0954 93.5968 21.0954H93.0157C92.8855 21.0954 92.8053 21.0757 92.7552 21.0163C92.7051 20.9668 92.6751 20.8778 92.6751 20.759V14.842C92.6751 13.2193 91.8936 12.4079 90.3407 12.4079C89.449 12.4079 88.5974 12.6157 87.7758 13.0412C88.0163 13.4963 88.1365 14.0801 88.1365 14.7925V20.7689C88.1365 20.8975 88.1165 20.9767 88.0664 21.0262C88.0263 21.0757 87.9261 21.1053 87.7958 21.1053H87.2148C87.0845 21.1053 87.0044 21.0855 86.9543 21.0262C86.9042 20.9767 86.8741 20.8877 86.8741 20.7689V14.8519C86.8741 13.2292 86.0726 12.4178 84.4796 12.4178C83.7382 12.4178 83.0769 12.5464 82.5058 12.7938C82.3055 12.8829 82.2053 13.0511 82.2053 13.2984V20.7788C82.2053 21.0064 82.0951 21.1152 81.8646 21.1152H81.2635C81.0331 21.1152 80.9229 21.0064 80.9229 20.7788V12.9224C80.9229 12.6355 80.9729 12.4178 81.0731 12.2694C81.1733 12.121 81.3637 11.9824 81.6342 11.8637C82.5359 11.4679 83.5478 11.27 84.6499 11.27C85.752 11.27 86.5134 11.5372 87.0845 12.0715V12.0517Z" fill="#F1F0EB"/>
<path id="Vector_9" d="M96.1319 13.1994C96.8332 11.8933 98.0956 11.2402 99.9191 11.2402C101.312 11.2402 102.294 11.5767 102.845 12.2396C103.406 12.9025 103.686 13.803 103.686 14.9309V19.809C103.686 20.1355 103.636 20.3631 103.546 20.5016C103.456 20.6402 103.275 20.7589 103.005 20.8776C102.253 21.2042 101.211 21.3625 99.879 21.3625C98.316 21.3625 97.254 21.1349 96.6729 20.66C96.0918 20.185 95.8013 19.4627 95.8013 18.4732C95.8013 17.4145 96.1219 16.6724 96.7531 16.237C97.3843 15.8017 98.4563 15.584 99.9491 15.584C100.46 15.584 101.292 15.6434 102.414 15.772V14.9211C102.414 14.1097 102.223 13.4863 101.853 13.0411C101.482 12.5958 100.821 12.3682 99.869 12.3682C98.6266 12.3682 97.7449 12.8234 97.234 13.7238C97.0937 13.9118 96.9434 13.9613 96.7631 13.8722L96.3122 13.6842C96.0718 13.5952 96.0117 13.4369 96.1219 13.1994H96.1319ZM102.424 16.7911C101.292 16.6823 100.43 16.6229 99.8189 16.6229C98.827 16.6229 98.1257 16.7615 97.7149 17.0484C97.3041 17.3354 97.1037 17.8004 97.1037 18.4436C97.1037 19.0867 97.2841 19.5419 97.6648 19.8486C98.0355 20.1553 98.7368 20.3038 99.7888 20.3038C100.741 20.3038 101.502 20.2048 102.073 20.0069C102.223 19.9475 102.324 19.8783 102.364 19.8189C102.404 19.7595 102.434 19.6408 102.434 19.4627V16.7812L102.424 16.7911Z" fill="#F1F0EB"/>
<path id="Vector_10" d="M106.572 19.6013C106.862 19.6013 107.052 19.6508 107.153 19.7596C107.253 19.8685 107.303 20.0565 107.303 20.3434V20.4523C107.303 20.7392 107.253 20.9371 107.143 21.036C107.032 21.1449 106.842 21.1944 106.572 21.1944H106.461C106.171 21.1944 105.97 21.1449 105.87 21.036C105.76 20.9272 105.71 20.7392 105.71 20.4523V20.3434C105.71 20.0565 105.76 19.8586 105.87 19.7596C105.98 19.6508 106.171 19.6013 106.461 19.6013H106.572Z" fill="#F1F0EB"/>
<path id="Vector_11" d="M109.207 14.6738C109.207 13.6052 109.577 12.774 110.309 12.1606C111.04 11.5471 112.052 11.2502 113.334 11.2502C114.617 11.2502 115.649 11.557 116.39 12.1606C117.132 12.7641 117.502 13.6052 117.502 14.6738V17.9489C117.502 19.0176 117.132 19.8487 116.39 20.4523C115.649 21.0559 114.637 21.3527 113.334 21.3527C112.032 21.3527 111.05 21.046 110.309 20.4424C109.567 19.8388 109.207 19.0077 109.207 17.9489V14.6738ZM116.22 14.6738C116.22 13.9713 115.959 13.4073 115.448 13.0016C114.937 12.5959 114.226 12.3881 113.334 12.3881C112.443 12.3881 111.761 12.5959 111.24 13.0016C110.729 13.4073 110.469 13.9713 110.469 14.6738V17.9489C110.469 18.6515 110.729 19.2155 111.25 19.6112C111.771 20.0169 112.463 20.2148 113.334 20.2148C114.206 20.2148 114.927 20.0169 115.448 19.6112C115.959 19.2056 116.22 18.6515 116.22 17.9489V14.6738Z" fill="#F1F0EB"/>
<path id="Vector_12" d="M123.754 11.2502H124.335C124.565 11.2502 124.676 11.3591 124.676 11.5867V12.0715C124.676 12.2991 124.565 12.4079 124.335 12.4079H123.714C122.772 12.4079 121.94 12.5366 121.229 12.7938C121.019 12.8829 120.908 13.0412 120.908 13.2787V20.759C120.908 20.9866 120.798 21.0954 120.568 21.0954H119.967C119.736 21.0954 119.626 20.9866 119.626 20.759V12.873C119.626 12.586 119.676 12.3782 119.776 12.2298C119.876 12.0913 120.067 11.9528 120.337 11.834C121.289 11.4778 122.431 11.2799 123.744 11.2601L123.754 11.2502Z" fill="#F1F0EB"/>
<path id="Vector_13" d="M125.357 15.0596C125.357 12.5166 126.709 11.2402 129.425 11.2402C130.647 11.2402 131.709 11.4282 132.611 11.7943C132.911 11.9329 133.112 12.0615 133.192 12.1802C133.282 12.299 133.322 12.5166 133.322 12.8234V21.6593C133.322 24.3408 131.999 25.6766 129.344 25.6766C127.581 25.6766 126.339 25.0136 125.617 23.6877C125.457 23.4503 125.497 23.2623 125.748 23.1336L126.158 22.9258C126.389 22.7972 126.569 22.8467 126.699 23.0545C127.24 24.0439 128.102 24.5387 129.304 24.5387C131.138 24.5387 132.06 23.5987 132.06 21.7088V20.5511C131.038 20.9271 130.046 21.1052 129.084 21.1052C126.599 21.1052 125.357 19.8981 125.357 17.4739V15.0398V15.0596ZM131.709 12.7541C131.068 12.5166 130.336 12.3979 129.505 12.3979C127.591 12.3979 126.639 13.2884 126.639 15.0794V17.464C126.639 19.1362 127.501 19.9772 129.234 19.9772C130.156 19.9772 131.098 19.7991 132.06 19.4429V13.2489C132.06 13.1004 132.04 13.0015 131.999 12.9421C131.959 12.8828 131.859 12.8234 131.699 12.764L131.709 12.7541Z" fill="#F1F0EB"/>
</g>
</g>
<defs>
<clipPath id="clip0_401_533">
<rect width="164" height="31" fill="white"/>
</clipPath>
</defs>
</svg>
